<?xml version="1.0" encoding="utf-8"?>

<svg xmlns="http://www.w3.org/2000/svg" version="1.1" width="570" height="928">
<line x1="285" y1="464" x2="460" y2="417" stroke="red" /><line x1="460" y1="417" x2="511" y2="389" stroke="red" /><line x1="511" y1="389" x2="554" y2="334" stroke="red" /><line x1="554" y1="334" x2="565" y2="294" stroke="red" /><line x1="565" y1="294" x2="547" y2="213" stroke="red" /><line x1="547" y1="213" x2="496" y2="124" stroke="red" /><line x1="496" y1="124" x2="402" y2="24" stroke="red" /><line x1="402" y1="24" x2="351" y2="5" stroke="red" /><line x1="351" y1="5" x2="301" y2="5" stroke="red" /><line x1="301" y1="5" x2="270" y2="5" stroke="red" /><line x1="270" y1="5" x2="237" y2="22" stroke="red" /><line x1="237" y1="22" x2="222" y2="38" stroke="red" /><line x1="222" y1="38" x2="207" y2="67" stroke="red" /><line x1="207" y1="67" x2="198" y2="102" stroke="red" /><line x1="198" y1="102" x2="197" y2="156" stroke="red" /><line x1="197" y1="156" x2="197" y2="194" stroke="red" /><line x1="197" y1="194" x2="208" y2="254" stroke="red" /><line x1="208" y1="254" x2="229" y2="283" stroke="red" /><line x1="229" y1="283" x2="273" y2="316" stroke="red" /><line x1="273" y1="316" x2="301" y2="333" stroke="red" /><line x1="301" y1="333" x2="324" y2="352" stroke="red" /><line x1="324" y1="352" x2="334" y2="359" stroke="red" /><line x1="334" y1="359" x2="345" y2="362" stroke="red" /><line x1="345" y1="362" x2="347" y2="363" stroke="red" /></svg>