<?xml version="1.0" encoding="utf-8"?>

<svg xmlns="http://www.w3.org/2000/svg" version="1.1" width="28.0065219929" height="15.5938657922">
<line x1="14.0032609965" y1="7.7969328961" x2="14.9053505035" y2="7.5166917903" stroke="red"  style="stroke-width:10"/><line x1="14.9053505035" y1="7.5166917903" x2="10.2489174038" y2="8.96324886781" stroke="red"  style="stroke-width:10"/><line x1="10.2489174038" y1="8.96324886781" x2="6.54261530066" y2="10.114640378" stroke="red"  style="stroke-width:10"/><line x1="6.54261530066" y1="10.114640378" x2="6.54261530066" y2="10.114640378" stroke="red"  style="stroke-width:10"/><line x1="6.54261530066" y1="10.114640378" x2="12.7464082494" y2="8.18738395547" stroke="red"  style="stroke-width:10"/><line x1="12.7464082494" y1="8.18738395547" x2="12.7464082494" y2="8.18738395547" stroke="red"  style="stroke-width:10"/><line x1="12.7464082494" y1="8.18738395547" x2="10.2489174038" y2="8.96324886781" stroke="red"  style="stroke-width:10"/><line x1="10.2489174038" y1="8.96324886781" x2="12.7464082494" y2="8.18738395547" stroke="red"  style="stroke-width:10"/><line x1="12.7464082494" y1="8.18738395547" x2="11.4949739044" y2="8.57615174617" stroke="red"  style="stroke-width:10"/><line x1="11.4949739044" y1="8.57615174617" x2="10.2489174038" y2="8.96324886781" stroke="red"  style="stroke-width:10"/><line x1="10.2489174038" y1="8.96324886781" x2="14.0032609965" y2="7.7969328961" stroke="red"  style="stroke-width:10"/><line x1="14.0032609965" y1="7.7969328961" x2="9.00819858562" y2="9.34868779695" stroke="red"  style="stroke-width:10"/><line x1="9.00819858562" y1="9.34868779695" x2="5.0" y2="10.5938657922" stroke="red"  style="stroke-width:10"/><line x1="5.0" y1="10.5938657922" x2="9.00819858562" y2="9.34868779695" stroke="red"  style="stroke-width:10"/><line x1="9.00819858562" y1="9.34868779695" x2="10.2489174038" y2="8.96324886781" stroke="red"  style="stroke-width:10"/><line x1="10.2489174038" y1="8.96324886781" x2="11.1510069108" y2="8.68300776201" stroke="red"  style="stroke-width:10"/><line x1="11.1510069108" y1="8.68300776201" x2="12.7464082494" y2="8.18738395547" stroke="red"  style="stroke-width:10"/><line x1="12.7464082494" y1="8.18738395547" x2="6.54261530066" y2="10.114640378" stroke="red"  style="stroke-width:10"/><line x1="6.54261530066" y1="10.114640378" x2="5.31767244704" y2="10.4951783813" stroke="red"  style="stroke-width:10"/><line x1="5.31767244704" y1="10.4951783813" x2="5.0" y2="10.5938657922" stroke="red"  style="stroke-width:10"/><line x1="5.0" y1="10.5938657922" x2="11.1510069108" y2="8.68300776201" stroke="red"  style="stroke-width:10"/><line x1="11.1510069108" y1="8.68300776201" x2="10.2489174038" y2="8.96324886781" stroke="red"  style="stroke-width:10"/><line x1="10.2489174038" y1="8.96324886781" x2="9.00819858562" y2="9.34868779695" stroke="red"  style="stroke-width:10"/><line x1="9.00819858562" y1="9.34868779695" x2="14.0032609965" y2="7.7969328961" stroke="red"  style="stroke-width:10"/><line x1="14.0032609965" y1="7.7969328961" x2="14.0032609965" y2="7.7969328961" stroke="red"  style="stroke-width:10"/><line x1="14.0032609965" y1="7.7969328961" x2="5.31767244704" y2="10.4951783813" stroke="red"  style="stroke-width:10"/><line x1="5.31767244704" y1="10.4951783813" x2="11.1510069108" y2="8.68300776201" stroke="red"  style="stroke-width:10"/><line x1="11.1510069108" y1="8.68300776201" x2="11.1510069108" y2="8.68300776201" stroke="red"  style="stroke-width:10"/><line x1="11.1510069108" y1="8.68300776201" x2="12.7464082494" y2="8.18738395547" stroke="red"  style="stroke-width:10"/><line x1="12.7464082494" y1="8.18738395547" x2="11.1510069108" y2="8.68300776201" stroke="red"  style="stroke-width:10"/></svg>