<?xml version="1.0" encoding="utf-8"?>

<svg xmlns="http://www.w3.org/2000/svg" version="1.1" width="730.239761401" height="508.784217913">
<line x1="365.1198807" y1="254.392108957" x2="368.761560977" y2="258.776737008" stroke="red"  style="stroke-width:10"/><line x1="368.761560977" y1="258.776737008" x2="371.077939477" y2="262.824878178" stroke="red"  style="stroke-width:10"/><line x1="371.077939477" y1="262.824878178" x2="364.111785712" y2="259.846709995" stroke="red"  style="stroke-width:10"/><line x1="364.111785712" y1="259.846709995" x2="349.117393456" y2="252.010872634" stroke="red"  style="stroke-width:10"/><line x1="349.117393456" y1="252.010872634" x2="356.35850368" y2="258.304023078" stroke="red"  style="stroke-width:10"/><line x1="356.35850368" y1="258.304023078" x2="353.667237939" y2="259.593253565" stroke="red"  style="stroke-width:10"/><line x1="353.667237939" y1="259.593253565" x2="362.505623403" y2="252.582894607" stroke="red"  style="stroke-width:10"/><line x1="362.505623403" y1="252.582894607" x2="365.228374402" y2="254.089218889" stroke="red"  style="stroke-width:10"/><line x1="365.228374402" y1="254.089218889" x2="363.700037033" y2="252.400646311" stroke="red"  style="stroke-width:10"/><line x1="363.700037033" y1="252.400646311" x2="364.082131612" y2="252.822800765" stroke="red"  style="stroke-width:10"/><line x1="364.082131612" y1="252.822800765" x2="367.901327632" y2="258.562301451" stroke="red"  style="stroke-width:10"/><line x1="367.901327632" y1="258.562301451" x2="366.10438588" y2="256.570968095" stroke="red"  style="stroke-width:10"/><line x1="366.10438588" y1="256.570968095" x2="367.693567119" y2="256.812869377" stroke="red"  style="stroke-width:10"/><line x1="367.693567119" y1="256.812869377" x2="367.250280118" y2="257.84082418" stroke="red"  style="stroke-width:10"/><line x1="367.250280118" y1="257.84082418" x2="367.693567119" y2="256.812869377" stroke="red"  style="stroke-width:10"/><line x1="367.693567119" y1="256.812869377" x2="370.997360228" y2="254.392480902" stroke="red"  style="stroke-width:10"/><line x1="370.997360228" y1="254.392480902" x2="372.144965869" y2="255.645215586" stroke="red"  style="stroke-width:10"/><line x1="372.144965869" y1="255.645215586" x2="271.21574219" y2="145.470139186" stroke="red"  style="stroke-width:10"/><line x1="271.21574219" y1="145.470139186" x2="334.21816516" y2="258.027688706" stroke="red"  style="stroke-width:10"/><line x1="334.21816516" y1="258.027688706" x2="334.178168829" y2="254.91719843" stroke="red"  style="stroke-width:10"/><line x1="334.178168829" y1="254.91719843" x2="372.478383657" y2="310.51754246" stroke="red"  style="stroke-width:10"/><line x1="372.478383657" y1="310.51754246" x2="387.944924226" y2="367.624881808" stroke="red"  style="stroke-width:10"/><line x1="387.944924226" y1="367.624881808" x2="388.765351773" y2="368.683881944" stroke="red"  style="stroke-width:10"/><line x1="388.765351773" y1="368.683881944" x2="420.201428687" y2="333.780302314" stroke="red"  style="stroke-width:10"/><line x1="420.201428687" y1="333.780302314" x2="447.521191286" y2="385.725445422" stroke="red"  style="stroke-width:10"/><line x1="447.521191286" y1="385.725445422" x2="440.338732059" y2="414.539589342" stroke="red"  style="stroke-width:10"/><line x1="440.338732059" y1="414.539589342" x2="439.431453261" y2="421.5813331" stroke="red"  style="stroke-width:10"/><line x1="439.431453261" y1="421.5813331" x2="442.992129621" y2="430.256292959" stroke="red"  style="stroke-width:10"/><line x1="442.992129621" y1="430.256292959" x2="454.431460105" y2="444.840496757" stroke="red"  style="stroke-width:10"/><line x1="454.431460105" y1="444.840496757" x2="455.006452335" y2="449.863843315" stroke="red"  style="stroke-width:10"/><line x1="455.006452335" y1="449.863843315" x2="720.230656502" y2="389.50643909" stroke="red"  style="stroke-width:10"/><line x1="720.230656502" y1="389.50643909" x2="714.344192698" y2="388.031964202" stroke="red"  style="stroke-width:10"/><line x1="714.344192698" y1="388.031964202" x2="379.987562607" y2="186.561493728" stroke="red"  style="stroke-width:10"/><line x1="379.987562607" y1="186.561493728" x2="380.891562961" y2="187.197129242" stroke="red"  style="stroke-width:10"/><line x1="380.891562961" y1="187.197129242" x2="333.169964656" y2="149.058787695" stroke="red"  style="stroke-width:10"/><line x1="333.169964656" y1="149.058787695" x2="400.151722967" y2="169.774769197" stroke="red"  style="stroke-width:10"/><line x1="400.151722967" y1="169.774769197" x2="401.876836591" y2="169.979366179" stroke="red"  style="stroke-width:10"/><line x1="401.876836591" y1="169.979366179" x2="389.422383134" y2="160.623690758" stroke="red"  style="stroke-width:10"/><line x1="389.422383134" y1="160.623690758" x2="389.533450521" y2="159.483604618" stroke="red"  style="stroke-width:10"/><line x1="389.533450521" y1="159.483604618" x2="381.318918547" y2="152.498668034" stroke="red"  style="stroke-width:10"/><line x1="381.318918547" y1="152.498668034" x2="371.472384423" y2="144.126016171" stroke="red"  style="stroke-width:10"/><line x1="371.472384423" y1="144.126016171" x2="371.456824722" y2="145.300824972" stroke="red"  style="stroke-width:10"/><line x1="371.456824722" y1="145.300824972" x2="370.312181" y2="144.324555728" stroke="red"  style="stroke-width:10"/><line x1="370.312181" y1="144.324555728" x2="335.943063971" y2="115.011057348" stroke="red"  style="stroke-width:10"/><line x1="335.943063971" y1="115.011057348" x2="336.707828559" y2="115.663326811" stroke="red"  style="stroke-width:10"/><line x1="336.707828559" y1="115.663326811" x2="336.634503587" y2="114.502856978" stroke="red"  style="stroke-width:10"/><line x1="336.634503587" y1="114.502856978" x2="338.401755207" y2="117.108080717" stroke="red"  style="stroke-width:10"/><line x1="338.401755207" y1="117.108080717" x2="337.121313424" y2="116.015988997" stroke="red"  style="stroke-width:10"/><line x1="337.121313424" y1="116.015988997" x2="336.353203094" y2="116.460879645" stroke="red"  style="stroke-width:10"/><line x1="336.353203094" y1="116.460879645" x2="334.825574263" y2="115.153998403" stroke="red"  style="stroke-width:10"/><line x1="334.825574263" y1="115.153998403" x2="333.516854527" y2="117.329268644" stroke="red"  style="stroke-width:10"/><line x1="333.516854527" y1="117.329268644" x2="330.715116491" y2="117.106600354" stroke="red"  style="stroke-width:10"/><line x1="330.715116491" y1="117.106600354" x2="332.629034233" y2="119.876370777" stroke="red"  style="stroke-width:10"/><line x1="332.629034233" y1="119.876370777" x2="330.099257678" y2="118.776036109" stroke="red"  style="stroke-width:10"/><line x1="330.099257678" y1="118.776036109" x2="330.429691046" y2="119.064783802" stroke="red"  style="stroke-width:10"/><line x1="330.429691046" y1="119.064783802" x2="324.472959889" y2="128.279370371" stroke="red"  style="stroke-width:10"/><line x1="324.472959889" y1="128.279370371" x2="227.06969821" y2="198.389369852" stroke="red"  style="stroke-width:10"/><line x1="227.06969821" y1="198.389369852" x2="199.382392857" y2="222.272151033" stroke="red"  style="stroke-width:10"/><line x1="199.382392857" y1="222.272151033" x2="448.838595237" y2="127.637911598" stroke="red"  style="stroke-width:10"/><line x1="448.838595237" y1="127.637911598" x2="444.45443398" y2="131.742221477" stroke="red"  style="stroke-width:10"/><line x1="444.45443398" y1="131.742221477" x2="449.404097124" y2="136.471923499" stroke="red"  style="stroke-width:10"/><line x1="449.404097124" y1="136.471923499" x2="360.345601598" y2="192.65384475" stroke="red"  style="stroke-width:10"/><line x1="360.345601598" y1="192.65384475" x2="126.975642032" y2="328.02475678" stroke="red"  style="stroke-width:10"/><line x1="126.975642032" y1="328.02475678" x2="586.681704012" y2="275.115281426" stroke="red"  style="stroke-width:10"/><line x1="586.681704012" y1="275.115281426" x2="616.809728088" y2="298.410052833" stroke="red"  style="stroke-width:10"/><line x1="616.809728088" y1="298.410052833" x2="624.048947251" y2="293.843871142" stroke="red"  style="stroke-width:10"/><line x1="624.048947251" y1="293.843871142" x2="620.829989039" y2="294.758000781" stroke="red"  style="stroke-width:10"/><line x1="620.829989039" y1="294.758000781" x2="608.392225971" y2="305.372397011" stroke="red"  style="stroke-width:10"/><line x1="608.392225971" y1="305.372397011" x2="594.073751385" y2="312.581524794" stroke="red"  style="stroke-width:10"/><line x1="594.073751385" y1="312.581524794" x2="583.094941744" y2="318.891134505" stroke="red"  style="stroke-width:10"/><line x1="583.094941744" y1="318.891134505" x2="576.582342383" y2="332.409391479" stroke="red"  style="stroke-width:10"/><line x1="576.582342383" y1="332.409391479" x2="572.763674763" y2="330.827230927" stroke="red"  style="stroke-width:10"/><line x1="572.763674763" y1="330.827230927" x2="574.393942957" y2="332.251833357" stroke="red"  style="stroke-width:10"/><line x1="574.393942957" y1="332.251833357" x2="575.726312198" y2="326.433446536" stroke="red"  style="stroke-width:10"/><line x1="575.726312198" y1="326.433446536" x2="508.441746818" y2="252.939019067" stroke="red"  style="stroke-width:10"/><line x1="508.441746818" y1="252.939019067" x2="519.753360389" y2="238.095735475" stroke="red"  style="stroke-width:10"/><line x1="519.753360389" y1="238.095735475" x2="511.995726772" y2="223.143934616" stroke="red"  style="stroke-width:10"/><line x1="511.995726772" y1="223.143934616" x2="495.632880583" y2="206.116509106" stroke="red"  style="stroke-width:10"/><line x1="495.632880583" y1="206.116509106" x2="494.050944769" y2="181.59034673" stroke="red"  style="stroke-width:10"/><line x1="494.050944769" y1="181.59034673" x2="496.208071515" y2="169.827995614" stroke="red"  style="stroke-width:10"/><line x1="496.208071515" y1="169.827995614" x2="470.319106475" y2="151.377549982" stroke="red"  style="stroke-width:10"/><line x1="470.319106475" y1="151.377549982" x2="444.290384233" y2="128.035499735" stroke="red"  style="stroke-width:10"/><line x1="444.290384233" y1="128.035499735" x2="380.378268598" y2="77.8420517953" stroke="red"  style="stroke-width:10"/><line x1="380.378268598" y1="77.8420517953" x2="373.625520139" y2="73.1656821678" stroke="red"  style="stroke-width:10"/><line x1="373.625520139" y1="73.1656821678" x2="347.213327045" y2="54.8748812688" stroke="red"  style="stroke-width:10"/><line x1="347.213327045" y1="54.8748812688" x2="344.96314337" y2="53.3165986437" stroke="red"  style="stroke-width:10"/><line x1="344.96314337" y1="53.3165986437" x2="332.919267012" y2="45.9103708533" stroke="red"  style="stroke-width:10"/><line x1="332.919267012" y1="45.9103708533" x2="321.163927707" y2="38.6536243374" stroke="red"  style="stroke-width:10"/><line x1="321.163927707" y1="38.6536243374" x2="311.23686125" y2="33.5164306616" stroke="red"  style="stroke-width:10"/><line x1="311.23686125" y1="33.5164306616" x2="396.15021487" y2="154.809791482" stroke="red"  style="stroke-width:10"/><line x1="396.15021487" y1="154.809791482" x2="419.98671168" y2="175.716708241" stroke="red"  style="stroke-width:10"/><line x1="419.98671168" y1="175.716708241" x2="421.735731824" y2="178.163740517" stroke="red"  style="stroke-width:10"/><line x1="421.735731824" y1="178.163740517" x2="426.73856397" y2="175.323348728" stroke="red"  style="stroke-width:10"/><line x1="426.73856397" y1="175.323348728" x2="425.619638955" y2="176.249055401" stroke="red"  style="stroke-width:10"/><line x1="425.619638955" y1="176.249055401" x2="368.776913981" y2="135.282331919" stroke="red"  style="stroke-width:10"/><line x1="368.776913981" y1="135.282331919" x2="423.961763379" y2="175.037993321" stroke="red"  style="stroke-width:10"/><line x1="423.961763379" y1="175.037993321" x2="418.511992235" y2="172.253029965" stroke="red"  style="stroke-width:10"/><line x1="418.511992235" y1="172.253029965" x2="420.875828282" y2="173.388368548" stroke="red"  style="stroke-width:10"/><line x1="420.875828282" y1="173.388368548" x2="418.135381603" y2="170.20084934" stroke="red"  style="stroke-width:10"/><line x1="418.135381603" y1="170.20084934" x2="419.037359934" y2="169.675649667" stroke="red"  style="stroke-width:10"/><line x1="419.037359934" y1="169.675649667" x2="440.173718823" y2="182.307756259" stroke="red"  style="stroke-width:10"/><line x1="440.173718823" y1="182.307756259" x2="453.672118268" y2="181.041526625" stroke="red"  style="stroke-width:10"/><line x1="453.672118268" y1="181.041526625" x2="464.181123473" y2="183.718660807" stroke="red"  style="stroke-width:10"/><line x1="464.181123473" y1="183.718660807" x2="480.799315487" y2="186.840185909" stroke="red"  style="stroke-width:10"/><line x1="480.799315487" y1="186.840185909" x2="536.182342067" y2="226.276014616" stroke="red"  style="stroke-width:10"/><line x1="536.182342067" y1="226.276014616" x2="542.556804179" y2="220.165105688" stroke="red"  style="stroke-width:10"/><line x1="542.556804179" y1="220.165105688" x2="533.901249787" y2="215.902140959" stroke="red"  style="stroke-width:10"/><line x1="533.901249787" y1="215.902140959" x2="553.357485928" y2="227.632401131" stroke="red"  style="stroke-width:10"/><line x1="553.357485928" y1="227.632401131" x2="577.427811754" y2="230.850961878" stroke="red"  style="stroke-width:10"/><line x1="577.427811754" y1="230.850961878" x2="585.985152766" y2="236.584554344" stroke="red"  style="stroke-width:10"/><line x1="585.985152766" y1="236.584554344" x2="643.406869218" y2="283.32066769" stroke="red"  style="stroke-width:10"/><line x1="643.406869218" y1="283.32066769" x2="659.59091836" y2="289.270159303" stroke="red"  style="stroke-width:10"/><line x1="659.59091836" y1="289.270159303" x2="667.962560333" y2="296.344654446" stroke="red"  style="stroke-width:10"/><line x1="667.962560333" y1="296.344654446" x2="694.470686745" y2="321.592541687" stroke="red"  style="stroke-width:10"/><line x1="694.470686745" y1="321.592541687" x2="697.442621122" y2="324.082457753" stroke="red"  style="stroke-width:10"/><line x1="697.442621122" y1="324.082457753" x2="697.044852386" y2="325.03211763" stroke="red"  style="stroke-width:10"/><line x1="697.044852386" y1="325.03211763" x2="698.331973569" y2="326.777320735" stroke="red"  style="stroke-width:10"/><line x1="698.331973569" y1="326.777320735" x2="702.336007518" y2="329.284607356" stroke="red"  style="stroke-width:10"/><line x1="702.336007518" y1="329.284607356" x2="705.421497509" y2="329.102630945" stroke="red"  style="stroke-width:10"/><line x1="705.421497509" y1="329.102630945" x2="714.559102675" y2="344.446288063" stroke="red"  style="stroke-width:10"/><line x1="714.559102675" y1="344.446288063" x2="725.239761401" y2="362.753529903" stroke="red"  style="stroke-width:10"/><line x1="725.239761401" y1="362.753529903" x2="721.712091108" y2="369.942498709" stroke="red"  style="stroke-width:10"/><line x1="721.712091108" y1="369.942498709" x2="506.965069862" y2="214.043633647" stroke="red"  style="stroke-width:10"/><line x1="506.965069862" y1="214.043633647" x2="513.551551124" y2="206.982427826" stroke="red"  style="stroke-width:10"/><line x1="513.551551124" y1="206.982427826" x2="517.430477601" y2="202.823925412" stroke="red"  style="stroke-width:10"/><line x1="517.430477601" y1="202.823925412" x2="549.002285297" y2="126.057591119" stroke="red"  style="stroke-width:10"/><line x1="549.002285297" y1="126.057591119" x2="542.800300004" y2="123.700654721" stroke="red"  style="stroke-width:10"/><line x1="542.800300004" y1="123.700654721" x2="554.717145591" y2="139.81767934" stroke="red"  style="stroke-width:10"/><line x1="554.717145591" y1="139.81767934" x2="562.103613343" y2="144.257287834" stroke="red"  style="stroke-width:10"/><line x1="562.103613343" y1="144.257287834" x2="563.130556353" y2="144.874528045" stroke="red"  style="stroke-width:10"/><line x1="563.130556353" y1="144.874528045" x2="505.608461841" y2="136.237922322" stroke="red"  style="stroke-width:10"/><line x1="505.608461841" y1="136.237922322" x2="491.966294657" y2="148.719849223" stroke="red"  style="stroke-width:10"/><line x1="491.966294657" y1="148.719849223" x2="486.075860271" y2="153.590839871" stroke="red"  style="stroke-width:10"/><line x1="486.075860271" y1="153.590839871" x2="466.284439618" y2="182.024983005" stroke="red"  style="stroke-width:10"/><line x1="466.284439618" y1="182.024983005" x2="464.753653019" y2="180.841389823" stroke="red"  style="stroke-width:10"/><line x1="464.753653019" y1="180.841389823" x2="462.972248252" y2="182.109414598" stroke="red"  style="stroke-width:10"/><line x1="462.972248252" y1="182.109414598" x2="462.142877303" y2="181.464166406" stroke="red"  style="stroke-width:10"/><line x1="462.142877303" y1="181.464166406" x2="456.786655613" y2="178.609460631" stroke="red"  style="stroke-width:10"/><line x1="456.786655613" y1="178.609460631" x2="455.545663944" y2="178.953477936" stroke="red"  style="stroke-width:10"/><line x1="455.545663944" y1="178.953477936" x2="453.513677917" y2="177.36279077" stroke="red"  style="stroke-width:10"/><line x1="453.513677917" y1="177.36279077" x2="461.532975446" y2="184.970571395" stroke="red"  style="stroke-width:10"/><line x1="461.532975446" y1="184.970571395" x2="460.245490563" y2="185.289673737" stroke="red"  style="stroke-width:10"/><line x1="460.245490563" y1="185.289673737" x2="462.665707123" y2="187.19601386" stroke="red"  style="stroke-width:10"/><line x1="462.665707123" y1="187.19601386" x2="462.665707123" y2="187.19601386" stroke="red"  style="stroke-width:10"/><line x1="462.665707123" y1="187.19601386" x2="461.795106178" y2="187.847276359" stroke="red"  style="stroke-width:10"/><line x1="461.795106178" y1="187.847276359" x2="462.536418026" y2="189.774984331" stroke="red"  style="stroke-width:10"/><line x1="462.536418026" y1="189.774984331" x2="461.327350696" y2="188.816743058" stroke="red"  style="stroke-width:10"/><line x1="461.327350696" y1="188.816743058" x2="460.925226328" y2="188.498041065" stroke="red"  style="stroke-width:10"/><line x1="460.925226328" y1="188.498041065" x2="466.067365073" y2="193.927241448" stroke="red"  style="stroke-width:10"/><line x1="466.067365073" y1="193.927241448" x2="466.54717882" y2="192.953696082" stroke="red"  style="stroke-width:10"/><line x1="466.54717882" y1="192.953696082" x2="467.816795255" y2="192.605053315" stroke="red"  style="stroke-width:10"/><line x1="467.816795255" y1="192.605053315" x2="470.48151707" y2="190.645620292" stroke="red"  style="stroke-width:10"/><line x1="470.48151707" y1="190.645620292" x2="469.592502705" y2="191.299281022" stroke="red"  style="stroke-width:10"/><line x1="469.592502705" y1="191.299281022" x2="471.753563357" y2="190.289750076" stroke="red"  style="stroke-width:10"/><line x1="471.753563357" y1="190.289750076" x2="465.474429197" y2="195.55332705" stroke="red"  style="stroke-width:10"/><line x1="465.474429197" y1="195.55332705" x2="468.868991817" y2="194.892960308" stroke="red"  style="stroke-width:10"/><line x1="468.868991817" y1="194.892960308" x2="470.233474918" y2="191.421254263" stroke="red"  style="stroke-width:10"/><line x1="470.233474918" y1="191.421254263" x2="459.953845673" y2="197.230262059" stroke="red"  style="stroke-width:10"/><line x1="459.953845673" y1="197.230262059" x2="459.438361168" y2="197.710171278" stroke="red"  style="stroke-width:10"/><line x1="459.438361168" y1="197.710171278" x2="457.67494333" y2="199.351889835" stroke="red"  style="stroke-width:10"/><line x1="457.67494333" y1="199.351889835" x2="459.301261901" y2="200.684279603" stroke="red"  style="stroke-width:10"/><line x1="459.301261901" y1="200.684279603" x2="461.657397144" y2="201.422352005" stroke="red"  style="stroke-width:10"/><line x1="461.657397144" y1="201.422352005" x2="460.577581842" y2="202.802532708" stroke="red"  style="stroke-width:10"/><line x1="460.577581842" y1="202.802532708" x2="463.798480425" y2="205.837509635" stroke="red"  style="stroke-width:10"/><line x1="463.798480425" y1="205.837509635" x2="404.584920695" y2="239.755868663" stroke="red"  style="stroke-width:10"/><line x1="404.584920695" y1="239.755868663" x2="464.994899655" y2="206.43251278" stroke="red"  style="stroke-width:10"/><line x1="464.994899655" y1="206.43251278" x2="463.079750191" y2="202.89061653" stroke="red"  style="stroke-width:10"/><line x1="463.079750191" y1="202.89061653" x2="464.145933761" y2="202.702766209" stroke="red"  style="stroke-width:10"/><line x1="464.145933761" y1="202.702766209" x2="466.182343205" y2="202.582152176" stroke="red"  style="stroke-width:10"/><line x1="466.182343205" y1="202.582152176" x2="468.246473877" y2="204.636020181" stroke="red"  style="stroke-width:10"/><line x1="468.246473877" y1="204.636020181" x2="467.545007649" y2="205.726563952" stroke="red"  style="stroke-width:10"/><line x1="467.545007649" y1="205.726563952" x2="471.825585962" y2="205.541732626" stroke="red"  style="stroke-width:10"/><line x1="471.825585962" y1="205.541732626" x2="469.116245219" y2="206.342085988" stroke="red"  style="stroke-width:10"/><line x1="469.116245219" y1="206.342085988" x2="469.934632891" y2="205.74937146" stroke="red"  style="stroke-width:10"/><line x1="469.934632891" y1="205.74937146" x2="470.370130174" y2="206.60025873" stroke="red"  style="stroke-width:10"/><line x1="470.370130174" y1="206.60025873" x2="474.394302663" y2="209.542447274" stroke="red"  style="stroke-width:10"/><line x1="474.394302663" y1="209.542447274" x2="475.112779867" y2="209.014999743" stroke="red"  style="stroke-width:10"/><line x1="475.112779867" y1="209.014999743" x2="476.750714933" y2="211.408624839" stroke="red"  style="stroke-width:10"/><line x1="476.750714933" y1="211.408624839" x2="474.824611377" y2="209.857044323" stroke="red"  style="stroke-width:10"/><line x1="474.824611377" y1="209.857044323" x2="474.824611377" y2="209.857044323" stroke="red"  style="stroke-width:10"/><line x1="474.824611377" y1="209.857044323" x2="475.863251723" y2="208.513240239" stroke="red"  style="stroke-width:10"/><line x1="475.863251723" y1="208.513240239" x2="476.598224226" y2="209.722065348" stroke="red"  style="stroke-width:10"/><line x1="476.598224226" y1="209.722065348" x2="472.089781" y2="207.725155197" stroke="red"  style="stroke-width:10"/><line x1="472.089781" y1="207.725155197" x2="476.165558482" y2="209.505604914" stroke="red"  style="stroke-width:10"/><line x1="476.165558482" y1="209.505604914" x2="472.929209643" y2="211.246419925" stroke="red"  style="stroke-width:10"/><line x1="472.929209643" y1="211.246419925" x2="473.021384005" y2="211.178252921" stroke="red"  style="stroke-width:10"/><line x1="473.021384005" y1="211.178252921" x2="474.863721025" y2="210.411918229" stroke="red"  style="stroke-width:10"/><line x1="474.863721025" y1="210.411918229" x2="472.483326235" y2="209.731677342" stroke="red"  style="stroke-width:10"/><line x1="472.483326235" y1="209.731677342" x2="479.239125188" y2="209.577614368" stroke="red"  style="stroke-width:10"/><line x1="479.239125188" y1="209.577614368" x2="480.303505315" y2="209.021705549" stroke="red"  style="stroke-width:10"/><line x1="480.303505315" y1="209.021705549" x2="470.883080374" y2="209.496176954" stroke="red"  style="stroke-width:10"/><line x1="470.883080374" y1="209.496176954" x2="468.472817618" y2="207.75438255" stroke="red"  style="stroke-width:10"/><line x1="468.472817618" y1="207.75438255" x2="474.898227675" y2="208.055117847" stroke="red"  style="stroke-width:10"/><line x1="474.898227675" y1="208.055117847" x2="473.288456193" y2="208.066165794" stroke="red"  style="stroke-width:10"/><line x1="473.288456193" y1="208.066165794" x2="473.111048792" y2="208.730962254" stroke="red"  style="stroke-width:10"/><line x1="473.111048792" y1="208.730962254" x2="471.424791813" y2="210.549462787" stroke="red"  style="stroke-width:10"/><line x1="471.424791813" y1="210.549462787" x2="470.619990786" y2="209.966947408" stroke="red"  style="stroke-width:10"/><line x1="470.619990786" y1="209.966947408" x2="479.594074862" y2="204.681083537" stroke="red"  style="stroke-width:10"/><line x1="479.594074862" y1="204.681083537" x2="479.881937076" y2="205.567983326" stroke="red"  style="stroke-width:10"/><line x1="479.881937076" y1="205.567983326" x2="481.261111701" y2="203.978654949" stroke="red"  style="stroke-width:10"/><line x1="481.261111701" y1="203.978654949" x2="474.177153169" y2="203.81744557" stroke="red"  style="stroke-width:10"/><line x1="474.177153169" y1="203.81744557" x2="478.364686541" y2="203.772234071" stroke="red"  style="stroke-width:10"/><line x1="478.364686541" y1="203.772234071" x2="474.447075305" y2="206.262247382" stroke="red"  style="stroke-width:10"/><line x1="474.447075305" y1="206.262247382" x2="476.442281784" y2="202.957472106" stroke="red"  style="stroke-width:10"/><line x1="476.442281784" y1="202.957472106" x2="482.437481448" y2="206.952994677" stroke="red"  style="stroke-width:10"/><line x1="482.437481448" y1="206.952994677" x2="476.019525481" y2="202.023175471" stroke="red"  style="stroke-width:10"/><line x1="476.019525481" y1="202.023175471" x2="483.667224291" y2="203.931697925" stroke="red"  style="stroke-width:10"/><line x1="483.667224291" y1="203.931697925" x2="476.382851664" y2="200.327073228" stroke="red"  style="stroke-width:10"/><line x1="476.382851664" y1="200.327073228" x2="483.278071643" y2="204.318733842" stroke="red"  style="stroke-width:10"/><line x1="483.278071643" y1="204.318733842" x2="480.167314698" y2="207.412570341" stroke="red"  style="stroke-width:10"/><line x1="480.167314698" y1="207.412570341" x2="482.111414961" y2="205.479044689" stroke="red"  style="stroke-width:10"/><line x1="482.111414961" y1="205.479044689" x2="479.79205495" y2="202.369563042" stroke="red"  style="stroke-width:10"/><line x1="479.79205495" y1="202.369563042" x2="477.975172222" y2="204.155008726" stroke="red"  style="stroke-width:10"/><line x1="477.975172222" y1="204.155008726" x2="479.79205495" y2="202.369563042" stroke="red"  style="stroke-width:10"/><line x1="479.79205495" y1="202.369563042" x2="485.908911993" y2="206.796364532" stroke="red"  style="stroke-width:10"/><line x1="485.908911993" y1="206.796364532" x2="490.063047935" y2="212.313279109" stroke="red"  style="stroke-width:10"/><line x1="490.063047935" y1="212.313279109" x2="490.079855047" y2="212.304277834" stroke="red"  style="stroke-width:10"/><line x1="490.079855047" y1="212.304277834" x2="488.87584933" y2="212.9490993" stroke="red"  style="stroke-width:10"/><line x1="488.87584933" y1="212.9490993" x2="488.028686729" y2="212.153750547" stroke="red"  style="stroke-width:10"/><line x1="488.028686729" y1="212.153750547" x2="484.206706074" y2="214.974203558" stroke="red"  style="stroke-width:10"/><line x1="484.206706074" y1="214.974203558" x2="490.503877281" y2="212.009473803" stroke="red"  style="stroke-width:10"/><line x1="490.503877281" y1="212.009473803" x2="486.743618541" y2="211.733212081" stroke="red"  style="stroke-width:10"/><line x1="486.743618541" y1="211.733212081" x2="484.415493547" y2="214.104915423" stroke="red"  style="stroke-width:10"/><line x1="484.415493547" y1="214.104915423" x2="490.561236795" y2="213.375964102" stroke="red"  style="stroke-width:10"/><line x1="490.561236795" y1="213.375964102" x2="490.60435243" y2="213.920933553" stroke="red"  style="stroke-width:10"/><line x1="490.60435243" y1="213.920933553" x2="463.405636329" y2="195.217011233" stroke="red"  style="stroke-width:10"/><line x1="463.405636329" y1="195.217011233" x2="463.786761131" y2="194.958652275" stroke="red"  style="stroke-width:10"/><line x1="463.786761131" y1="194.958652275" x2="463.405636329" y2="195.217011233" stroke="red"  style="stroke-width:10"/><line x1="463.405636329" y1="195.217011233" x2="489.412545559" y2="214.223157449" stroke="red"  style="stroke-width:10"/><line x1="489.412545559" y1="214.223157449" x2="489.613474449" y2="215.888627354" stroke="red"  style="stroke-width:10"/><line x1="489.613474449" y1="215.888627354" x2="486.68647814" y2="216.810470948" stroke="red"  style="stroke-width:10"/><line x1="486.68647814" y1="216.810470948" x2="492.201160351" y2="212.742608015" stroke="red"  style="stroke-width:10"/><line x1="492.201160351" y1="212.742608015" x2="489.456002848" y2="214.768954124" stroke="red"  style="stroke-width:10"/><line x1="489.456002848" y1="214.768954124" x2="500.659272663" y2="201.570439384" stroke="red"  style="stroke-width:10"/><line x1="500.659272663" y1="201.570439384" x2="492.604595357" y2="212.452863887" stroke="red"  style="stroke-width:10"/><line x1="492.604595357" y1="212.452863887" x2="490.077582417" y2="213.665784868" stroke="red"  style="stroke-width:10"/><line x1="490.077582417" y1="213.665784868" x2="517.47995991" y2="194.641035988" stroke="red"  style="stroke-width:10"/><line x1="517.47995991" y1="194.641035988" x2="615.946849318" y2="309.884485556" stroke="red"  style="stroke-width:10"/><line x1="615.946849318" y1="309.884485556" x2="572.096602906" y2="276.946264262" stroke="red"  style="stroke-width:10"/><line x1="572.096602906" y1="276.946264262" x2="549.285554811" y2="261.142550631" stroke="red"  style="stroke-width:10"/><line x1="549.285554811" y1="261.142550631" x2="565.802262148" y2="287.694137482" stroke="red"  style="stroke-width:10"/><line x1="565.802262148" y1="287.694137482" x2="576.714316589" y2="297.70129754" stroke="red"  style="stroke-width:10"/><line x1="576.714316589" y1="297.70129754" x2="562.033171335" y2="288.386106232" stroke="red"  style="stroke-width:10"/><line x1="562.033171335" y1="288.386106232" x2="555.075307816" y2="294.727507252" stroke="red"  style="stroke-width:10"/><line x1="555.075307816" y1="294.727507252" x2="556.499496977" y2="294.72867674" stroke="red"  style="stroke-width:10"/><line x1="556.499496977" y1="294.72867674" x2="544.74632421" y2="303.445998792" stroke="red"  style="stroke-width:10"/><line x1="544.74632421" y1="303.445998792" x2="539.059016507" y2="300.009942368" stroke="red"  style="stroke-width:10"/><line x1="539.059016507" y1="300.009942368" x2="552.466564092" y2="302.147686706" stroke="red"  style="stroke-width:10"/><line x1="552.466564092" y1="302.147686706" x2="560.887855127" y2="289.099178396" stroke="red"  style="stroke-width:10"/><line x1="560.887855127" y1="289.099178396" x2="565.501650663" y2="287.313326327" stroke="red"  style="stroke-width:10"/><line x1="565.501650663" y1="287.313326327" x2="542.06171896" y2="295.680996467" stroke="red"  style="stroke-width:10"/><line x1="542.06171896" y1="295.680996467" x2="525.368186286" y2="307.513517269" stroke="red"  style="stroke-width:10"/><line x1="525.368186286" y1="307.513517269" x2="528.218937717" y2="307.489261667" stroke="red"  style="stroke-width:10"/><line x1="528.218937717" y1="307.489261667" x2="530.428249145" y2="303.218534111" stroke="red"  style="stroke-width:10"/><line x1="530.428249145" y1="303.218534111" x2="527.635388632" y2="305.199520984" stroke="red"  style="stroke-width:10"/><line x1="527.635388632" y1="305.199520984" x2="515.693004715" y2="295.400420036" stroke="red"  style="stroke-width:10"/><line x1="515.693004715" y1="295.400420036" x2="515.567190729" y2="298.182284038" stroke="red"  style="stroke-width:10"/><line x1="515.567190729" y1="298.182284038" x2="520.81869966" y2="286.323500802" stroke="red"  style="stroke-width:10"/><line x1="520.81869966" y1="286.323500802" x2="528.64987248" y2="289.03405971" stroke="red"  style="stroke-width:10"/><line x1="528.64987248" y1="289.03405971" x2="524.089901199" y2="288.96078512" stroke="red"  style="stroke-width:10"/><line x1="524.089901199" y1="288.96078512" x2="526.029693825" y2="282.221917959" stroke="red"  style="stroke-width:10"/><line x1="526.029693825" y1="282.221917959" x2="521.395460677" y2="289.169993449" stroke="red"  style="stroke-width:10"/><line x1="521.395460677" y1="289.169993449" x2="528.752930174" y2="295.638311288" stroke="red"  style="stroke-width:10"/><line x1="528.752930174" y1="295.638311288" x2="526.584410616" y2="295.367390228" stroke="red"  style="stroke-width:10"/><line x1="526.584410616" y1="295.367390228" x2="540.010536427" y2="286.233554745" stroke="red"  style="stroke-width:10"/><line x1="540.010536427" y1="286.233554745" x2="554.79924747" y2="294.241414774" stroke="red"  style="stroke-width:10"/><line x1="554.79924747" y1="294.241414774" x2="553.412050927" y2="292.817492598" stroke="red"  style="stroke-width:10"/><line x1="553.412050927" y1="292.817492598" x2="549.95823458" y2="296.090164713" stroke="red"  style="stroke-width:10"/><line x1="549.95823458" y1="296.090164713" x2="558.970150355" y2="296.190513858" stroke="red"  style="stroke-width:10"/><line x1="558.970150355" y1="296.190513858" x2="557.781385471" y2="295.274473889" stroke="red"  style="stroke-width:10"/><line x1="557.781385471" y1="295.274473889" x2="554.989251671" y2="295.600682344" stroke="red"  style="stroke-width:10"/><line x1="554.989251671" y1="295.600682344" x2="554.474744788" y2="294.78174095" stroke="red"  style="stroke-width:10"/><line x1="554.474744788" y1="294.78174095" x2="552.049879248" y2="296.108661554" stroke="red"  style="stroke-width:10"/><line x1="552.049879248" y1="296.108661554" x2="554.429138578" y2="296.01919133" stroke="red"  style="stroke-width:10"/><line x1="554.429138578" y1="296.01919133" x2="555.242881035" y2="292.402629498" stroke="red"  style="stroke-width:10"/><line x1="555.242881035" y1="292.402629498" x2="546.514991734" y2="312.942425373" stroke="red"  style="stroke-width:10"/><line x1="546.514991734" y1="312.942425373" x2="542.883953979" y2="309.740530968" stroke="red"  style="stroke-width:10"/><line x1="542.883953979" y1="309.740530968" x2="564.127963355" y2="300.008637415" stroke="red"  style="stroke-width:10"/><line x1="564.127963355" y1="300.008637415" x2="565.970431761" y2="301.415809843" stroke="red"  style="stroke-width:10"/><line x1="565.970431761" y1="301.415809843" x2="576.196528919" y2="309.581247046" stroke="red"  style="stroke-width:10"/><line x1="576.196528919" y1="309.581247046" x2="572.605323546" y2="310.816203362" stroke="red"  style="stroke-width:10"/><line x1="572.605323546" y1="310.816203362" x2="573.130555935" y2="311.617193668" stroke="red"  style="stroke-width:10"/><line x1="573.130555935" y1="311.617193668" x2="569.323497002" y2="309.922140009" stroke="red"  style="stroke-width:10"/><line x1="569.323497002" y1="309.922140009" x2="569.913661974" y2="309.191833744" stroke="red"  style="stroke-width:10"/><line x1="569.913661974" y1="309.191833744" x2="571.025688986" y2="311.213969902" stroke="red"  style="stroke-width:10"/><line x1="571.025688986" y1="311.213969902" x2="568.909614614" y2="308.440377627" stroke="red"  style="stroke-width:10"/><line x1="568.909614614" y1="308.440377627" x2="571.719179736" y2="310.555034287" stroke="red"  style="stroke-width:10"/><line x1="571.719179736" y1="310.555034287" x2="570.52911518" y2="308.45057249" stroke="red"  style="stroke-width:10"/><line x1="570.52911518" y1="308.45057249" x2="568.518419857" y2="307.699220778" stroke="red"  style="stroke-width:10"/><line x1="568.518419857" y1="307.699220778" x2="572.16563271" y2="307.241339114" stroke="red"  style="stroke-width:10"/><line x1="572.16563271" y1="307.241339114" x2="571.232900394" y2="306.146042374" stroke="red"  style="stroke-width:10"/><line x1="571.232900394" y1="306.146042374" x2="568.115941369" y2="300.609949578" stroke="red"  style="stroke-width:10"/><line x1="568.115941369" y1="300.609949578" x2="565.948472033" y2="299.370502837" stroke="red"  style="stroke-width:10"/><line x1="565.948472033" y1="299.370502837" x2="565.806307309" y2="299.632087596" stroke="red"  style="stroke-width:10"/><line x1="565.806307309" y1="299.632087596" x2="567.472962372" y2="298.120193919" stroke="red"  style="stroke-width:10"/><line x1="567.472962372" y1="298.120193919" x2="568.44167458" y2="299.642151418" stroke="red"  style="stroke-width:10"/><line x1="568.44167458" y1="299.642151418" x2="567.341639621" y2="298.809022854" stroke="red"  style="stroke-width:10"/><line x1="567.341639621" y1="298.809022854" x2="568.413995901" y2="299.644228389" stroke="red"  style="stroke-width:10"/><line x1="568.413995901" y1="299.644228389" x2="570.42685277" y2="300.389385369" stroke="red"  style="stroke-width:10"/><line x1="570.42685277" y1="300.389385369" x2="570.079412983" y2="301.278334998" stroke="red"  style="stroke-width:10"/><line x1="570.079412983" y1="301.278334998" x2="568.000769675" y2="303.337202722" stroke="red"  style="stroke-width:10"/><line x1="568.000769675" y1="303.337202722" x2="545.895817518" y2="312.396429822" stroke="red"  style="stroke-width:10"/><line x1="545.895817518" y1="312.396429822" x2="563.60489151" y2="298.776924322" stroke="red"  style="stroke-width:10"/><line x1="563.60489151" y1="298.776924322" x2="545.284148666" y2="311.857052595" stroke="red"  style="stroke-width:10"/><line x1="545.284148666" y1="311.857052595" x2="546.593639899" y2="313.011778306" stroke="red"  style="stroke-width:10"/><line x1="546.593639899" y1="313.011778306" x2="544.508068225" y2="311.172695177" stroke="red"  style="stroke-width:10"/><line x1="544.508068225" y1="311.172695177" x2="564.699067081" y2="297.224571108" stroke="red"  style="stroke-width:10"/><line x1="564.699067081" y1="297.224571108" x2="565.952746587" y2="297.769488255" stroke="red"  style="stroke-width:10"/><line x1="565.952746587" y1="297.769488255" x2="564.804038236" y2="298.046891484" stroke="red"  style="stroke-width:10"/><line x1="564.804038236" y1="298.046891484" x2="561.845341136" y2="298.7162306" stroke="red"  style="stroke-width:10"/><line x1="561.845341136" y1="298.7162306" x2="563.337786514" y2="300.259006058" stroke="red"  style="stroke-width:10"/><line x1="563.337786514" y1="300.259006058" x2="562.895226767" y2="298.371047332" stroke="red"  style="stroke-width:10"/><line x1="562.895226767" y1="298.371047332" x2="570.852400067" y2="306.568191115" stroke="red"  style="stroke-width:10"/><line x1="570.852400067" y1="306.568191115" x2="570.492322502" y2="307.112854184" stroke="red"  style="stroke-width:10"/><line x1="570.492322502" y1="307.112854184" x2="558.515251723" y2="302.323183312" stroke="red"  style="stroke-width:10"/><line x1="558.515251723" y1="302.323183312" x2="562.463845091" y2="298.660398943" stroke="red"  style="stroke-width:10"/><line x1="562.463845091" y1="298.660398943" x2="565.702569048" y2="300.3605105" stroke="red"  style="stroke-width:10"/><line x1="565.702569048" y1="300.3605105" x2="561.588844164" y2="303.345636081" stroke="red"  style="stroke-width:10"/><line x1="561.588844164" y1="303.345636081" x2="564.639410772" y2="301.150544965" stroke="red"  style="stroke-width:10"/><line x1="564.639410772" y1="301.150544965" x2="562.307337774" y2="302.24083218" stroke="red"  style="stroke-width:10"/><line x1="562.307337774" y1="302.24083218" x2="564.042312964" y2="301.033161127" stroke="red"  style="stroke-width:10"/><line x1="564.042312964" y1="301.033161127" x2="564.676502918" y2="299.942885728" stroke="red"  style="stroke-width:10"/><line x1="564.676502918" y1="299.942885728" x2="573.917131682" y2="292.632730181" stroke="red"  style="stroke-width:10"/><line x1="573.917131682" y1="292.632730181" x2="559.074495168" y2="303.503430089" stroke="red"  style="stroke-width:10"/><line x1="559.074495168" y1="303.503430089" x2="559.383401619" y2="303.744198819" stroke="red"  style="stroke-width:10"/><line x1="559.383401619" y1="303.744198819" x2="559.167051054" y2="303.566152224" stroke="red"  style="stroke-width:10"/><line x1="559.167051054" y1="303.566152224" x2="565.169850356" y2="307.266826837" stroke="red"  style="stroke-width:10"/><line x1="565.169850356" y1="307.266826837" x2="564.246924658" y2="307.354646945" stroke="red"  style="stroke-width:10"/><line x1="564.246924658" y1="307.354646945" x2="558.869470688" y2="304.135694044" stroke="red"  style="stroke-width:10"/><line x1="558.869470688" y1="304.135694044" x2="559.581648553" y2="304.682583435" stroke="red"  style="stroke-width:10"/><line x1="559.581648553" y1="304.682583435" x2="559.852219437" y2="304.865045361" stroke="red"  style="stroke-width:10"/><line x1="559.852219437" y1="304.865045361" x2="563.032040125" y2="307.243072648" stroke="red"  style="stroke-width:10"/><line x1="563.032040125" y1="307.243072648" x2="567.97785726" y2="302.496409144" stroke="red"  style="stroke-width:10"/><line x1="567.97785726" y1="302.496409144" x2="544.211346418" y2="315.985284432" stroke="red"  style="stroke-width:10"/><line x1="544.211346418" y1="315.985284432" x2="539.653910021" y2="313.618062834" stroke="red"  style="stroke-width:10"/><line x1="539.653910021" y1="313.618062834" x2="537.651351202" y2="315.209855435" stroke="red"  style="stroke-width:10"/><line x1="537.651351202" y1="315.209855435" x2="554.145028718" y2="300.980801293" stroke="red"  style="stroke-width:10"/><line x1="554.145028718" y1="300.980801293" x2="545.167775333" y2="301.252327501" stroke="red"  style="stroke-width:10"/><line x1="545.167775333" y1="301.252327501" x2="546.658017038" y2="295.517172761" stroke="red"  style="stroke-width:10"/><line x1="546.658017038" y1="295.517172761" x2="537.117989855" y2="290.374189266" stroke="red"  style="stroke-width:10"/><line x1="537.117989855" y1="290.374189266" x2="536.481978517" y2="291.399741834" stroke="red"  style="stroke-width:10"/><line x1="536.481978517" y1="291.399741834" x2="533.593899277" y2="292.925568211" stroke="red"  style="stroke-width:10"/><line x1="533.593899277" y1="292.925568211" x2="541.927042382" y2="302.051393789" stroke="red"  style="stroke-width:10"/><line x1="541.927042382" y1="302.051393789" x2="528.890332437" y2="294.505166167" stroke="red"  style="stroke-width:10"/><line x1="528.890332437" y1="294.505166167" x2="524.046978484" y2="292.991718395" stroke="red"  style="stroke-width:10"/><line x1="524.046978484" y1="292.991718395" x2="515.734460937" y2="297.641905006" stroke="red"  style="stroke-width:10"/><line x1="515.734460937" y1="297.641905006" x2="516.38823777" y2="302.797147832" stroke="red"  style="stroke-width:10"/><line x1="516.38823777" y1="302.797147832" x2="510.272472649" y2="301.511595181" stroke="red"  style="stroke-width:10"/><line x1="510.272472649" y1="301.511595181" x2="502.165125223" y2="314.481991503" stroke="red"  style="stroke-width:10"/><line x1="502.165125223" y1="314.481991503" x2="495.685432341" y2="316.500105877" stroke="red"  style="stroke-width:10"/><line x1="495.685432341" y1="316.500105877" x2="493.413899857" y2="316.158069521" stroke="red"  style="stroke-width:10"/><line x1="493.413899857" y1="316.158069521" x2="487.164710463" y2="319.91414133" stroke="red"  style="stroke-width:10"/><line x1="487.164710463" y1="319.91414133" x2="493.613517083" y2="319.88592322" stroke="red"  style="stroke-width:10"/><line x1="493.613517083" y1="319.88592322" x2="487.793155187" y2="321.906916366" stroke="red"  style="stroke-width:10"/><line x1="487.793155187" y1="321.906916366" x2="487.665554299" y2="310.670396817" stroke="red"  style="stroke-width:10"/><line x1="487.665554299" y1="310.670396817" x2="471.653208947" y2="291.928661489" stroke="red"  style="stroke-width:10"/><line x1="471.653208947" y1="291.928661489" x2="452.328715808" y2="273.333301217" stroke="red"  style="stroke-width:10"/><line x1="452.328715808" y1="273.333301217" x2="453.465821265" y2="271.31016013" stroke="red"  style="stroke-width:10"/><line x1="453.465821265" y1="271.31016013" x2="459.919372867" y2="277.483034643" stroke="red"  style="stroke-width:10"/><line x1="459.919372867" y1="277.483034643" x2="447.654995956" y2="289.32591192" stroke="red"  style="stroke-width:10"/><line x1="447.654995956" y1="289.32591192" x2="696.479613295" y2="484.471779444" stroke="red"  style="stroke-width:10"/><line x1="696.479613295" y1="484.471779444" x2="696.479613295" y2="484.471779444" stroke="red"  style="stroke-width:10"/><line x1="696.479613295" y1="484.471779444" x2="697.060197464" y2="482.702996874" stroke="red"  style="stroke-width:10"/><line x1="697.060197464" y1="482.702996874" x2="696.27786541" y2="485.086415809" stroke="red"  style="stroke-width:10"/><line x1="696.27786541" y1="485.086415809" x2="686.396276343" y2="503.784217913" stroke="red"  style="stroke-width:10"/><line x1="686.396276343" y1="503.784217913" x2="685.375694852" y2="503.097486886" stroke="red"  style="stroke-width:10"/><line x1="685.375694852" y1="503.097486886" x2="671.471004618" y2="492.711547048" stroke="red"  style="stroke-width:10"/><line x1="671.471004618" y1="492.711547048" x2="661.719950325" y2="485.185702566" stroke="red"  style="stroke-width:10"/><line x1="661.719950325" y1="485.185702566" x2="668.742006249" y2="466.482146671" stroke="red"  style="stroke-width:10"/><line x1="668.742006249" y1="466.482146671" x2="669.026797058" y2="465.723593782" stroke="red"  style="stroke-width:10"/><line x1="669.026797058" y1="465.723593782" x2="668.718306189" y2="466.545272827" stroke="red"  style="stroke-width:10"/><line x1="668.718306189" y1="466.545272827" x2="672.121764588" y2="467.220343142" stroke="red"  style="stroke-width:10"/><line x1="672.121764588" y1="467.220343142" x2="670.90944137" y2="473.80882452" stroke="red"  style="stroke-width:10"/><line x1="670.90944137" y1="473.80882452" x2="669.013031521" y2="475.615192963" stroke="red"  style="stroke-width:10"/><line x1="669.013031521" y1="475.615192963" x2="667.093849888" y2="474.15408359" stroke="red"  style="stroke-width:10"/><line x1="667.093849888" y1="474.15408359" x2="667.093849888" y2="474.15408359" stroke="red"  style="stroke-width:10"/><line x1="667.093849888" y1="474.15408359" x2="668.053032043" y2="474.88423064" stroke="red"  style="stroke-width:10"/><line x1="668.053032043" y1="474.88423064" x2="658.659551523" y2="480.064018022" stroke="red"  style="stroke-width:10"/><line x1="658.659551523" y1="480.064018022" x2="662.608168142" y2="469.73544741" stroke="red"  style="stroke-width:10"/><line x1="662.608168142" y1="469.73544741" x2="669.295677203" y2="458.574492722" stroke="red"  style="stroke-width:10"/><line x1="669.295677203" y1="458.574492722" x2="670.679511782" y2="433.299189347" stroke="red"  style="stroke-width:10"/><line x1="670.679511782" y1="433.299189347" x2="668.88409026" y2="417.261904652" stroke="red"  style="stroke-width:10"/><line x1="668.88409026" y1="417.261904652" x2="673.784750877" y2="419.459518406" stroke="red"  style="stroke-width:10"/><line x1="673.784750877" y1="419.459518406" x2="561.79772096" y2="446.468751124" stroke="red"  style="stroke-width:10"/><line x1="561.79772096" y1="446.468751124" x2="571.161051981" y2="421.945938527" stroke="red"  style="stroke-width:10"/></svg>