<?xml version="1.0" encoding="utf-8"?>

<svg xmlns="http://www.w3.org/2000/svg" version="1.1" width="1221.74158148" height="537.433528007">
<line x1="610.870790739" y1="268.716764004" x2="612.015239738" y2="271.823399974" stroke="red"  style="stroke-width:10"/><line x1="612.015239738" y1="271.823399974" x2="613.76158382" y2="270.70480751" stroke="red"  style="stroke-width:10"/><line x1="613.76158382" y1="270.70480751" x2="608.23643654" y2="272.266924153" stroke="red"  style="stroke-width:10"/><line x1="608.23643654" y1="272.266924153" x2="609.978155611" y2="271.418522686" stroke="red"  style="stroke-width:10"/><line x1="609.978155611" y1="271.418522686" x2="615.621215312" y2="273.697631411" stroke="red"  style="stroke-width:10"/><line x1="615.621215312" y1="273.697631411" x2="620.69495282" y2="274.829404377" stroke="red"  style="stroke-width:10"/><line x1="620.69495282" y1="274.829404377" x2="622.670998256" y2="271.936603188" stroke="red"  style="stroke-width:10"/><line x1="622.670998256" y1="271.936603188" x2="621.681153821" y2="273.528406698" stroke="red"  style="stroke-width:10"/><line x1="621.681153821" y1="273.528406698" x2="624.7718475" y2="273.181649497" stroke="red"  style="stroke-width:10"/><line x1="624.7718475" y1="273.181649497" x2="618.440135923" y2="274.006150554" stroke="red"  style="stroke-width:10"/><line x1="618.440135923" y1="274.006150554" x2="590.820064113" y2="274.850299403" stroke="red"  style="stroke-width:10"/><line x1="590.820064113" y1="274.850299403" x2="531.556009176" y2="268.252118999" stroke="red"  style="stroke-width:10"/><line x1="531.556009176" y1="268.252118999" x2="432.373533368" y2="240.795041548" stroke="red"  style="stroke-width:10"/><line x1="432.373533368" y1="240.795041548" x2="334.70378074" y2="219.641812908" stroke="red"  style="stroke-width:10"/><line x1="334.70378074" y1="219.641812908" x2="294.822776987" y2="209.69998171" stroke="red"  style="stroke-width:10"/><line x1="294.822776987" y1="209.69998171" x2="278.608807794" y2="204.689684259" stroke="red"  style="stroke-width:10"/><line x1="278.608807794" y1="204.689684259" x2="259.684768295" y2="190.658794284" stroke="red"  style="stroke-width:10"/><line x1="259.684768295" y1="190.658794284" x2="261.461748959" y2="193.588992136" stroke="red"  style="stroke-width:10"/><line x1="261.461748959" y1="193.588992136" x2="215.519533052" y2="217.444720962" stroke="red"  style="stroke-width:10"/><line x1="215.519533052" y1="217.444720962" x2="248.718564105" y2="202.294250608" stroke="red"  style="stroke-width:10"/><line x1="248.718564105" y1="202.294250608" x2="275.233561079" y2="218.399925385" stroke="red"  style="stroke-width:10"/><line x1="275.233561079" y1="218.399925385" x2="255.342681303" y2="205.054785388" stroke="red"  style="stroke-width:10"/><line x1="255.342681303" y1="205.054785388" x2="271.147879526" y2="210.228697221" stroke="red"  style="stroke-width:10"/><line x1="271.147879526" y1="210.228697221" x2="298.358606626" y2="212.159016097" stroke="red"  style="stroke-width:10"/><line x1="298.358606626" y1="212.159016097" x2="312.199740087" y2="243.214535725" stroke="red"  style="stroke-width:10"/><line x1="312.199740087" y1="243.214535725" x2="331.836237904" y2="237.214470255" stroke="red"  style="stroke-width:10"/><line x1="331.836237904" y1="237.214470255" x2="368.520235672" y2="212.298352904" stroke="red"  style="stroke-width:10"/><line x1="368.520235672" y1="212.298352904" x2="331.028768061" y2="182.119733158" stroke="red"  style="stroke-width:10"/><line x1="331.028768061" y1="182.119733158" x2="320.17438007" y2="137.406108711" stroke="red"  style="stroke-width:10"/><line x1="320.17438007" y1="137.406108711" x2="366.610774062" y2="57.746875261" stroke="red"  style="stroke-width:10"/><line x1="366.610774062" y1="57.746875261" x2="422.537023613" y2="86.7145412337" stroke="red"  style="stroke-width:10"/><line x1="422.537023613" y1="86.7145412337" x2="485.247384947" y2="108.3006443" stroke="red"  style="stroke-width:10"/><line x1="485.247384947" y1="108.3006443" x2="470.054576855" y2="96.4292932827" stroke="red"  style="stroke-width:10"/><line x1="470.054576855" y1="96.4292932827" x2="485.871722479" y2="86.9724126597" stroke="red"  style="stroke-width:10"/><line x1="485.871722479" y1="86.9724126597" x2="483.984936949" y2="81.1638426287" stroke="red"  style="stroke-width:10"/><line x1="483.984936949" y1="81.1638426287" x2="485.772290366" y2="81.268229079" stroke="red"  style="stroke-width:10"/><line x1="485.772290366" y1="81.268229079" x2="482.296893276" y2="85.7896834935" stroke="red"  style="stroke-width:10"/><line x1="482.296893276" y1="85.7896834935" x2="480.571658028" y2="89.4876796414" stroke="red"  style="stroke-width:10"/><line x1="480.571658028" y1="89.4876796414" x2="486.871698275" y2="91.3089281557" stroke="red"  style="stroke-width:10"/><line x1="486.871698275" y1="91.3089281557" x2="476.879389991" y2="85.4444982958" stroke="red"  style="stroke-width:10"/><line x1="476.879389991" y1="85.4444982958" x2="481.397316965" y2="87.1823918285" stroke="red"  style="stroke-width:10"/><line x1="481.397316965" y1="87.1823918285" x2="484.130432813" y2="89.7291876953" stroke="red"  style="stroke-width:10"/><line x1="484.130432813" y1="89.7291876953" x2="482.343985496" y2="88.650637083" stroke="red"  style="stroke-width:10"/><line x1="482.343985496" y1="88.650637083" x2="485.899844212" y2="88.8932143981" stroke="red"  style="stroke-width:10"/><line x1="485.899844212" y1="88.8932143981" x2="487.720564933" y2="90.8968812762" stroke="red"  style="stroke-width:10"/><line x1="487.720564933" y1="90.8968812762" x2="483.179216045" y2="88.2274586285" stroke="red"  style="stroke-width:10"/><line x1="483.179216045" y1="88.2274586285" x2="487.75502899" y2="92.7963187307" stroke="red"  style="stroke-width:10"/><line x1="487.75502899" y1="92.7963187307" x2="487.831094319" y2="97.5340944718" stroke="red"  style="stroke-width:10"/><line x1="487.831094319" y1="97.5340944718" x2="480.711544468" y2="98.0657634618" stroke="red"  style="stroke-width:10"/><line x1="480.711544468" y1="98.0657634618" x2="483.685890434" y2="61.0312469256" stroke="red"  style="stroke-width:10"/><line x1="483.685890434" y1="61.0312469256" x2="175.441682482" y2="426.923635319" stroke="red"  style="stroke-width:10"/><line x1="175.441682482" y1="426.923635319" x2="251.842598369" y2="396.935634089" stroke="red"  style="stroke-width:10"/><line x1="251.842598369" y1="396.935634089" x2="174.679467454" y2="426.009709033" stroke="red"  style="stroke-width:10"/><line x1="174.679467454" y1="426.009709033" x2="244.96433676" y2="397.709503045" stroke="red"  style="stroke-width:10"/><line x1="244.96433676" y1="397.709503045" x2="175.799554494" y2="427.352738165" stroke="red"  style="stroke-width:10"/><line x1="175.799554494" y1="427.352738165" x2="191.597099384" y2="422.097881161" stroke="red"  style="stroke-width:10"/><line x1="191.597099384" y1="422.097881161" x2="305.218453791" y2="375.579182649" stroke="red"  style="stroke-width:10"/><line x1="305.218453791" y1="375.579182649" x2="476.730038935" y2="322.160835998" stroke="red"  style="stroke-width:10"/><line x1="476.730038935" y1="322.160835998" x2="546.473831825" y2="289.39932548" stroke="red"  style="stroke-width:10"/><line x1="546.473831825" y1="289.39932548" x2="565.205268614" y2="280.689679265" stroke="red"  style="stroke-width:10"/><line x1="565.205268614" y1="280.689679265" x2="567.25946386" y2="275.610299648" stroke="red"  style="stroke-width:10"/><line x1="567.25946386" y1="275.610299648" x2="569.506775423" y2="279.678520715" stroke="red"  style="stroke-width:10"/><line x1="569.506775423" y1="279.678520715" x2="565.173191451" y2="279.647093252" stroke="red"  style="stroke-width:10"/><line x1="565.173191451" y1="279.647093252" x2="563.193333404" y2="278.472682909" stroke="red"  style="stroke-width:10"/><line x1="563.193333404" y1="278.472682909" x2="564.182029864" y2="279.059162048" stroke="red"  style="stroke-width:10"/><line x1="564.182029864" y1="279.059162048" x2="563.377775366" y2="278.578590222" stroke="red"  style="stroke-width:10"/><line x1="563.377775366" y1="278.578590222" x2="560.645562111" y2="278.833221072" stroke="red"  style="stroke-width:10"/><line x1="560.645562111" y1="278.833221072" x2="564.586146874" y2="277.767862061" stroke="red"  style="stroke-width:10"/><line x1="564.586146874" y1="277.767862061" x2="566.350876146" y2="277.972681998" stroke="red"  style="stroke-width:10"/><line x1="566.350876146" y1="277.972681998" x2="567.954101545" y2="279.115893455" stroke="red"  style="stroke-width:10"/><line x1="567.954101545" y1="279.115893455" x2="562.286743996" y2="280.834359837" stroke="red"  style="stroke-width:10"/><line x1="562.286743996" y1="280.834359837" x2="567.148599883" y2="278.453615154" stroke="red"  style="stroke-width:10"/><line x1="567.148599883" y1="278.453615154" x2="560.893959384" y2="281.714166857" stroke="red"  style="stroke-width:10"/><line x1="560.893959384" y1="281.714166857" x2="562.08638876" y2="279.861477993" stroke="red"  style="stroke-width:10"/><line x1="562.08638876" y1="279.861477993" x2="563.071320392" y2="280.44740482" stroke="red"  style="stroke-width:10"/><line x1="563.071320392" y1="280.44740482" x2="564.16934627" y2="275.130482502" stroke="red"  style="stroke-width:10"/><line x1="564.16934627" y1="275.130482502" x2="552.843916505" y2="280.83539068" stroke="red"  style="stroke-width:10"/><line x1="552.843916505" y1="280.83539068" x2="554.464728767" y2="281.085999762" stroke="red"  style="stroke-width:10"/><line x1="554.464728767" y1="281.085999762" x2="551.92914188" y2="282.310912424" stroke="red"  style="stroke-width:10"/><line x1="551.92914188" y1="282.310912424" x2="554.17558824" y2="282.800238016" stroke="red"  style="stroke-width:10"/><line x1="554.17558824" y1="282.800238016" x2="550.658173574" y2="282.572519857" stroke="red"  style="stroke-width:10"/><line x1="550.658173574" y1="282.572519857" x2="551.434930924" y2="281.303121155" stroke="red"  style="stroke-width:10"/><line x1="551.434930924" y1="281.303121155" x2="547.785421362" y2="284.323218274" stroke="red"  style="stroke-width:10"/><line x1="547.785421362" y1="284.323218274" x2="552.244751032" y2="283.076586641" stroke="red"  style="stroke-width:10"/><line x1="552.244751032" y1="283.076586641" x2="340.312748639" y2="168.083870524" stroke="red"  style="stroke-width:10"/><line x1="340.312748639" y1="168.083870524" x2="5.0" y2="237.390559126" stroke="red"  style="stroke-width:10"/><line x1="5.0" y1="237.390559126" x2="158.560793688" y2="261.17453991" stroke="red"  style="stroke-width:10"/><line x1="158.560793688" y1="261.17453991" x2="198.101674543" y2="436.902124673" stroke="red"  style="stroke-width:10"/><line x1="198.101674543" y1="436.902124673" x2="931.800339621" y2="377.414230456" stroke="red"  style="stroke-width:10"/><line x1="931.800339621" y1="377.414230456" x2="708.711397432" y2="135.991959004" stroke="red"  style="stroke-width:10"/><line x1="708.711397432" y1="135.991959004" x2="659.320098872" y2="168.529580303" stroke="red"  style="stroke-width:10"/><line x1="659.320098872" y1="168.529580303" x2="630.258305781" y2="210.872245894" stroke="red"  style="stroke-width:10"/><line x1="630.258305781" y1="210.872245894" x2="616.011881479" y2="267.556114398" stroke="red"  style="stroke-width:10"/><line x1="616.011881479" y1="267.556114398" x2="592.423947835" y2="299.833588461" stroke="red"  style="stroke-width:10"/><line x1="592.423947835" y1="299.833588461" x2="565.251255919" y2="340.835663346" stroke="red"  style="stroke-width:10"/><line x1="565.251255919" y1="340.835663346" x2="514.233686469" y2="313.144229323" stroke="red"  style="stroke-width:10"/><line x1="514.233686469" y1="313.144229323" x2="515.35713435" y2="305.212799925" stroke="red"  style="stroke-width:10"/><line x1="515.35713435" y1="305.212799925" x2="823.649608545" y2="69.1051446988" stroke="red"  style="stroke-width:10"/><line x1="823.649608545" y1="69.1051446988" x2="810.072269005" y2="63.9537938141" stroke="red"  style="stroke-width:10"/><line x1="810.072269005" y1="63.9537938141" x2="474.63242435" y2="288.425454719" stroke="red"  style="stroke-width:10"/><line x1="474.63242435" y1="288.425454719" x2="454.450288509" y2="278.83004954" stroke="red"  style="stroke-width:10"/><line x1="454.450288509" y1="278.83004954" x2="789.765887657" y2="47.7343247576" stroke="red"  style="stroke-width:10"/><line x1="789.765887657" y1="47.7343247576" x2="406.170801073" y2="257.625067548" stroke="red"  style="stroke-width:10"/><line x1="406.170801073" y1="257.625067548" x2="347.154029201" y2="212.804694222" stroke="red"  style="stroke-width:10"/><line x1="347.154029201" y1="212.804694222" x2="378.072210328" y2="219.070957307" stroke="red"  style="stroke-width:10"/><line x1="378.072210328" y1="219.070957307" x2="375.799285793" y2="200.833447433" stroke="red"  style="stroke-width:10"/><line x1="375.799285793" y1="200.833447433" x2="361.812784194" y2="180.873070218" stroke="red"  style="stroke-width:10"/><line x1="361.812784194" y1="180.873070218" x2="357.423893181" y2="165.681856917" stroke="red"  style="stroke-width:10"/><line x1="357.423893181" y1="165.681856917" x2="331.862602142" y2="158.182544802" stroke="red"  style="stroke-width:10"/><line x1="331.862602142" y1="158.182544802" x2="278.561178605" y2="122.549975498" stroke="red"  style="stroke-width:10"/><line x1="278.561178605" y1="122.549975498" x2="277.805342603" y2="122.069034215" stroke="red"  style="stroke-width:10"/><line x1="277.805342603" y1="122.069034215" x2="280.249272255" y2="109.289886803" stroke="red"  style="stroke-width:10"/><line x1="280.249272255" y1="109.289886803" x2="683.160117999" y2="126.923114804" stroke="red"  style="stroke-width:10"/><line x1="683.160117999" y1="126.923114804" x2="691.986073916" y2="119.335604817" stroke="red"  style="stroke-width:10"/><line x1="691.986073916" y1="119.335604817" x2="690.646323156" y2="125.091372377" stroke="red"  style="stroke-width:10"/><line x1="690.646323156" y1="125.091372377" x2="691.964336989" y2="140.83669078" stroke="red"  style="stroke-width:10"/><line x1="691.964336989" y1="140.83669078" x2="749.003464622" y2="204.179443774" stroke="red"  style="stroke-width:10"/><line x1="749.003464622" y1="204.179443774" x2="765.87331653" y2="217.074297641" stroke="red"  style="stroke-width:10"/><line x1="765.87331653" y1="217.074297641" x2="796.240772994" y2="226.458821539" stroke="red"  style="stroke-width:10"/><line x1="796.240772994" y1="226.458821539" x2="799.211310621" y2="202.29517164" stroke="red"  style="stroke-width:10"/><line x1="799.211310621" y1="202.29517164" x2="811.365658995" y2="167.430539146" stroke="red"  style="stroke-width:10"/><line x1="811.365658995" y1="167.430539146" x2="537.301745154" y2="304.504049655" stroke="red"  style="stroke-width:10"/><line x1="537.301745154" y1="304.504049655" x2="823.273576029" y2="131.714139897" stroke="red"  style="stroke-width:10"/><line x1="823.273576029" y1="131.714139897" x2="564.475399972" y2="297.881542059" stroke="red"  style="stroke-width:10"/><line x1="564.475399972" y1="297.881542059" x2="582.276269266" y2="302.425090904" stroke="red"  style="stroke-width:10"/><line x1="582.276269266" y1="302.425090904" x2="582.613005874" y2="300.419082633" stroke="red"  style="stroke-width:10"/><line x1="582.613005874" y1="300.419082633" x2="850.046946628" y2="139.828582111" stroke="red"  style="stroke-width:10"/><line x1="850.046946628" y1="139.828582111" x2="581.839204698" y2="302.152479587" stroke="red"  style="stroke-width:10"/><line x1="581.839204698" y1="302.152479587" x2="835.923316449" y2="138.154706324" stroke="red"  style="stroke-width:10"/><line x1="835.923316449" y1="138.154706324" x2="808.971816741" y2="140.043886392" stroke="red"  style="stroke-width:10"/><line x1="808.971816741" y1="140.043886392" x2="779.425256854" y2="138.152798952" stroke="red"  style="stroke-width:10"/><line x1="779.425256854" y1="138.152798952" x2="752.464111135" y2="135.219290796" stroke="red"  style="stroke-width:10"/><line x1="752.464111135" y1="135.219290796" x2="749.531271909" y2="137.017084322" stroke="red"  style="stroke-width:10"/><line x1="749.531271909" y1="137.017084322" x2="730.894052211" y2="144.920484589" stroke="red"  style="stroke-width:10"/><line x1="730.894052211" y1="144.920484589" x2="708.815358975" y2="156.672839542" stroke="red"  style="stroke-width:10"/><line x1="708.815358975" y1="156.672839542" x2="704.704861215" y2="149.525800016" stroke="red"  style="stroke-width:10"/><line x1="704.704861215" y1="149.525800016" x2="693.591844988" y2="145.907678227" stroke="red"  style="stroke-width:10"/><line x1="693.591844988" y1="145.907678227" x2="679.102541656" y2="142.05547772" stroke="red"  style="stroke-width:10"/><line x1="679.102541656" y1="142.05547772" x2="680.761371883" y2="137.15937007" stroke="red"  style="stroke-width:10"/><line x1="680.761371883" y1="137.15937007" x2="684.70620261" y2="131.70427408" stroke="red"  style="stroke-width:10"/><line x1="684.70620261" y1="131.70427408" x2="681.536935818" y2="132.851311341" stroke="red"  style="stroke-width:10"/><line x1="681.536935818" y1="132.851311341" x2="679.755292698" y2="132.786221072" stroke="red"  style="stroke-width:10"/><line x1="679.755292698" y1="132.786221072" x2="682.047507684" y2="131.395495323" stroke="red"  style="stroke-width:10"/><line x1="682.047507684" y1="131.395495323" x2="676.909305114" y2="136.01831942" stroke="red"  style="stroke-width:10"/><line x1="676.909305114" y1="136.01831942" x2="677.017594905" y2="131.382350736" stroke="red"  style="stroke-width:10"/><line x1="677.017594905" y1="131.382350736" x2="676.04956903" y2="131.968591745" stroke="red"  style="stroke-width:10"/><line x1="676.04956903" y1="131.968591745" x2="675.798294236" y2="132.48250185" stroke="red"  style="stroke-width:10"/><line x1="675.798294236" y1="132.48250185" x2="693.149907282" y2="119.615441326" stroke="red"  style="stroke-width:10"/><line x1="693.149907282" y1="119.615441326" x2="692.080277872" y2="117.182400025" stroke="red"  style="stroke-width:10"/><line x1="692.080277872" y1="117.182400025" x2="690.139395937" y2="114.122976418" stroke="red"  style="stroke-width:10"/><line x1="690.139395937" y1="114.122976418" x2="733.37533139" y2="123.389717854" stroke="red"  style="stroke-width:10"/><line x1="733.37533139" y1="123.389717854" x2="734.895189994" y2="122.343927002" stroke="red"  style="stroke-width:10"/><line x1="734.895189994" y1="122.343927002" x2="711.812675265" y2="99.1964042426" stroke="red"  style="stroke-width:10"/><line x1="711.812675265" y1="99.1964042426" x2="710.956746319" y2="97.3500182028" stroke="red"  style="stroke-width:10"/><line x1="710.956746319" y1="97.3500182028" x2="716.430707499" y2="99.9296171841" stroke="red"  style="stroke-width:10"/><line x1="716.430707499" y1="99.9296171841" x2="702.076460372" y2="110.21768517" stroke="red"  style="stroke-width:10"/><line x1="702.076460372" y1="110.21768517" x2="706.588599247" y2="113.772955966" stroke="red"  style="stroke-width:10"/><line x1="706.588599247" y1="113.772955966" x2="706.299769991" y2="112.022552794" stroke="red"  style="stroke-width:10"/><line x1="706.299769991" y1="112.022552794" x2="702.590554728" y2="120.130510533" stroke="red"  style="stroke-width:10"/><line x1="702.590554728" y1="120.130510533" x2="726.964634638" y2="109.78934516" stroke="red"  style="stroke-width:10"/><line x1="726.964634638" y1="109.78934516" x2="751.692888727" y2="103.455851462" stroke="red"  style="stroke-width:10"/><line x1="751.692888727" y1="103.455851462" x2="730.625848912" y2="113.097097919" stroke="red"  style="stroke-width:10"/><line x1="730.625848912" y1="113.097097919" x2="472.546085182" y2="266.293442635" stroke="red"  style="stroke-width:10"/><line x1="472.546085182" y1="266.293442635" x2="467.293722773" y2="262.839593484" stroke="red"  style="stroke-width:10"/><line x1="467.293722773" y1="262.839593484" x2="466.868187276" y2="268.694047444" stroke="red"  style="stroke-width:10"/><line x1="466.868187276" y1="268.694047444" x2="463.908337889" y2="266.728575175" stroke="red"  style="stroke-width:10"/><line x1="463.908337889" y1="266.728575175" x2="453.284867121" y2="273.924477117" stroke="red"  style="stroke-width:10"/><line x1="453.284867121" y1="273.924477117" x2="446.566830915" y2="273.440339805" stroke="red"  style="stroke-width:10"/><line x1="446.566830915" y1="273.440339805" x2="448.698736287" y2="274.897866658" stroke="red"  style="stroke-width:10"/><line x1="448.698736287" y1="274.897866658" x2="452.275032053" y2="277.342884706" stroke="red"  style="stroke-width:10"/><line x1="452.275032053" y1="277.342884706" x2="449.119864075" y2="277.237328383" stroke="red"  style="stroke-width:10"/><line x1="449.119864075" y1="277.237328383" x2="450.012162585" y2="275.795821194" stroke="red"  style="stroke-width:10"/><line x1="450.012162585" y1="275.795821194" x2="708.154470259" y2="114.135832671" stroke="red"  style="stroke-width:10"/><line x1="708.154470259" y1="114.135832671" x2="726.653992421" y2="119.757204386" stroke="red"  style="stroke-width:10"/><line x1="726.653992421" y1="119.757204386" x2="727.743242045" y2="122.484306855" stroke="red"  style="stroke-width:10"/><line x1="727.743242045" y1="122.484306855" x2="727.386149529" y2="129.103708894" stroke="red"  style="stroke-width:10"/><line x1="727.386149529" y1="129.103708894" x2="696.858455443" y2="143.642474044" stroke="red"  style="stroke-width:10"/><line x1="696.858455443" y1="143.642474044" x2="708.551574979" y2="129.998729424" stroke="red"  style="stroke-width:10"/><line x1="708.551574979" y1="129.998729424" x2="716.386763412" y2="134.293762102" stroke="red"  style="stroke-width:10"/><line x1="716.386763412" y1="134.293762102" x2="721.657554523" y2="134.258827239" stroke="red"  style="stroke-width:10"/><line x1="721.657554523" y1="134.258827239" x2="721.12125136" y2="136.943784206" stroke="red"  style="stroke-width:10"/><line x1="721.12125136" y1="136.943784206" x2="725.514027535" y2="137.455108932" stroke="red"  style="stroke-width:10"/><line x1="725.514027535" y1="137.455108932" x2="725.562511019" y2="140.08209468" stroke="red"  style="stroke-width:10"/><line x1="725.562511019" y1="140.08209468" x2="721.775254183" y2="136.404534327" stroke="red"  style="stroke-width:10"/><line x1="721.775254183" y1="136.404534327" x2="735.669287868" y2="130.521860074" stroke="red"  style="stroke-width:10"/><line x1="735.669287868" y1="130.521860074" x2="743.365630073" y2="128.371607996" stroke="red"  style="stroke-width:10"/><line x1="743.365630073" y1="128.371607996" x2="751.520273596" y2="113.817493908" stroke="red"  style="stroke-width:10"/><line x1="751.520273596" y1="113.817493908" x2="770.582327661" y2="116.169622323" stroke="red"  style="stroke-width:10"/><line x1="770.582327661" y1="116.169622323" x2="774.288911992" y2="110.818854839" stroke="red"  style="stroke-width:10"/><line x1="774.288911992" y1="110.818854839" x2="771.612981265" y2="111.848454777" stroke="red"  style="stroke-width:10"/><line x1="771.612981265" y1="111.848454777" x2="770.598872239" y2="113.689013667" stroke="red"  style="stroke-width:10"/><line x1="770.598872239" y1="113.689013667" x2="771.439861782" y2="105.059220304" stroke="red"  style="stroke-width:10"/><line x1="771.439861782" y1="105.059220304" x2="762.985590771" y2="115.58274611" stroke="red"  style="stroke-width:10"/><line x1="762.985590771" y1="115.58274611" x2="732.562158086" y2="139.087762915" stroke="red"  style="stroke-width:10"/><line x1="732.562158086" y1="139.087762915" x2="703.873667143" y2="157.51491416" stroke="red"  style="stroke-width:10"/><line x1="703.873667143" y1="157.51491416" x2="684.488686181" y2="165.520732624" stroke="red"  style="stroke-width:10"/><line x1="684.488686181" y1="165.520732624" x2="961.58523733" y2="5.0" stroke="red"  style="stroke-width:10"/><line x1="961.58523733" y1="5.0" x2="963.028908122" y2="11.7632695441" stroke="red"  style="stroke-width:10"/><line x1="963.028908122" y1="11.7632695441" x2="964.141953821" y2="13.4197538657" stroke="red"  style="stroke-width:10"/><line x1="964.141953821" y1="13.4197538657" x2="964.825048014" y2="14.4363651535" stroke="red"  style="stroke-width:10"/><line x1="964.825048014" y1="14.4363651535" x2="963.879183744" y2="10.7375739313" stroke="red"  style="stroke-width:10"/><line x1="963.879183744" y1="10.7375739313" x2="969.910686531" y2="19.7430745295" stroke="red"  style="stroke-width:10"/><line x1="969.910686531" y1="19.7430745295" x2="969.729920111" y2="19.4731762703" stroke="red"  style="stroke-width:10"/><line x1="969.729920111" y1="19.4731762703" x2="953.822588914" y2="47.033650848" stroke="red"  style="stroke-width:10"/></svg>