<?xml version="1.0" encoding="utf-8"?>

<svg xmlns="http://www.w3.org/2000/svg" version="1.1" width="111.897254192" height="346.117161151">
<line x1="55.9486270958" y1="173.058580576" x2="45.1281083651" y2="169.192997205" stroke="red"  style="stroke-width:10"/><line x1="45.1281083651" y1="169.192997205" x2="45.5592723927" y2="106.154435031" stroke="red"  style="stroke-width:10"/><line x1="45.5592723927" y1="106.154435031" x2="55.5064364955" y2="152.002047433" stroke="red"  style="stroke-width:10"/><line x1="55.5064364955" y1="152.002047433" x2="72.9970068516" y2="137.362114069" stroke="red"  style="stroke-width:10"/><line x1="72.9970068516" y1="137.362114069" x2="13.7248974242" y2="134.779560623" stroke="red"  style="stroke-width:10"/><line x1="13.7248974242" y1="134.779560623" x2="35.0672454024" y2="107.210730602" stroke="red"  style="stroke-width:10"/><line x1="35.0672454024" y1="107.210730602" x2="55.3873573687" y2="128.558007836" stroke="red"  style="stroke-width:10"/><line x1="55.3873573687" y1="128.558007836" x2="7.67940433965" y2="118.006420433" stroke="red"  style="stroke-width:10"/><line x1="7.67940433965" y1="118.006420433" x2="30.5701025578" y2="94.4763876212" stroke="red"  style="stroke-width:10"/><line x1="30.5701025578" y1="94.4763876212" x2="26.3520233184" y2="103.786864814" stroke="red"  style="stroke-width:10"/><line x1="26.3520233184" y1="103.786864814" x2="5.0" y2="120.760660231" stroke="red"  style="stroke-width:10"/><line x1="5.0" y1="120.760660231" x2="25.2697896597" y2="102.411528561" stroke="red"  style="stroke-width:10"/><line x1="25.2697896597" y1="102.411528561" x2="9.77107489875" y2="128.608697955" stroke="red"  style="stroke-width:10"/><line x1="9.77107489875" y1="128.608697955" x2="6.66356396742" y2="126.707149727" stroke="red"  style="stroke-width:10"/><line x1="6.66356396742" y1="126.707149727" x2="15.2173888206" y2="117.834890207" stroke="red"  style="stroke-width:10"/><line x1="15.2173888206" y1="117.834890207" x2="26.697656016" y2="100.939370661" stroke="red"  style="stroke-width:10"/><line x1="26.697656016" y1="100.939370661" x2="19.7901923176" y2="115.61898382" stroke="red"  style="stroke-width:10"/><line x1="19.7901923176" y1="115.61898382" x2="72.4563369833" y2="140.603284566" stroke="red"  style="stroke-width:10"/><line x1="72.4563369833" y1="140.603284566" x2="25.3663889396" y2="112.335397986" stroke="red"  style="stroke-width:10"/><line x1="25.3663889396" y1="112.335397986" x2="32.9234115718" y2="104.449843655" stroke="red"  style="stroke-width:10"/><line x1="32.9234115718" y1="104.449843655" x2="31.7668238249" y2="110.675379348" stroke="red"  style="stroke-width:10"/><line x1="31.7668238249" y1="110.675379348" x2="70.107967257" y2="135.425286504" stroke="red"  style="stroke-width:10"/><line x1="70.107967257" y1="135.425286504" x2="12.4894294524" y2="138.682779632" stroke="red"  style="stroke-width:10"/><line x1="12.4894294524" y1="138.682779632" x2="30.3025914887" y2="109.694589386" stroke="red"  style="stroke-width:10"/><line x1="30.3025914887" y1="109.694589386" x2="54.3614661768" y2="101.77276577" stroke="red"  style="stroke-width:10"/><line x1="54.3614661768" y1="101.77276577" x2="8.31216966583" y2="135.297124242" stroke="red"  style="stroke-width:10"/><line x1="8.31216966583" y1="135.297124242" x2="62.4789436824" y2="141.455248811" stroke="red"  style="stroke-width:10"/><line x1="62.4789436824" y1="141.455248811" x2="42.0421801749" y2="125.136473629" stroke="red"  style="stroke-width:10"/><line x1="42.0421801749" y1="125.136473629" x2="91.7615679444" y2="81.0280944098" stroke="red"  style="stroke-width:10"/><line x1="91.7615679444" y1="81.0280944098" x2="90.6048711345" y2="84.7376922994" stroke="red"  style="stroke-width:10"/><line x1="90.6048711345" y1="84.7376922994" x2="73.7102572755" y2="78.6646667711" stroke="red"  style="stroke-width:10"/><line x1="73.7102572755" y1="78.6646667711" x2="76.4296903267" y2="78.1849903294" stroke="red"  style="stroke-width:10"/><line x1="76.4296903267" y1="78.1849903294" x2="75.4656833368" y2="81.6445287678" stroke="red"  style="stroke-width:10"/><line x1="75.4656833368" y1="81.6445287678" x2="70.4510186426" y2="84.575335296" stroke="red"  style="stroke-width:10"/><line x1="70.4510186426" y1="84.575335296" x2="73.757442374" y2="78.6143840337" stroke="red"  style="stroke-width:10"/><line x1="73.757442374" y1="78.6143840337" x2="72.13843173" y2="77.9153912863" stroke="red"  style="stroke-width:10"/><line x1="72.13843173" y1="77.9153912863" x2="74.4763978052" y2="77.8482301348" stroke="red"  style="stroke-width:10"/><line x1="74.4763978052" y1="77.8482301348" x2="75.2420844851" y2="77.0322771427" stroke="red"  style="stroke-width:10"/><line x1="75.2420844851" y1="77.0322771427" x2="73.8308093023" y2="73.7061437781" stroke="red"  style="stroke-width:10"/><line x1="73.8308093023" y1="73.7061437781" x2="74.2678295828" y2="73.2432244942" stroke="red"  style="stroke-width:10"/><line x1="74.2678295828" y1="73.2432244942" x2="71.8235566723" y2="73.422442593" stroke="red"  style="stroke-width:10"/><line x1="71.8235566723" y1="73.422442593" x2="79.5454961371" y2="62.8895933298" stroke="red"  style="stroke-width:10"/><line x1="79.5454961371" y1="62.8895933298" x2="68.8802253737" y2="62.1743382735" stroke="red"  style="stroke-width:10"/><line x1="68.8802253737" y1="62.1743382735" x2="82.0007858169" y2="62.674424344" stroke="red"  style="stroke-width:10"/><line x1="82.0007858169" y1="62.674424344" x2="84.2072260378" y2="60.3442360951" stroke="red"  style="stroke-width:10"/><line x1="84.2072260378" y1="60.3442360951" x2="77.730182219" y2="69.5756834805" stroke="red"  style="stroke-width:10"/><line x1="77.730182219" y1="69.5756834805" x2="86.5465866795" y2="60.2367950567" stroke="red"  style="stroke-width:10"/><line x1="86.5465866795" y1="60.2367950567" x2="73.2418209473" y2="76.7430947521" stroke="red"  style="stroke-width:10"/><line x1="73.2418209473" y1="76.7430947521" x2="78.3873933546" y2="64.1089796599" stroke="red"  style="stroke-width:10"/><line x1="78.3873933546" y1="64.1089796599" x2="84.6375154398" y2="64.6357323188" stroke="red"  style="stroke-width:10"/><line x1="84.6375154398" y1="64.6357323188" x2="81.2892511367" y2="68.1930977314" stroke="red"  style="stroke-width:10"/><line x1="81.2892511367" y1="68.1930977314" x2="84.6796401501" y2="62.2143818847" stroke="red"  style="stroke-width:10"/><line x1="84.6796401501" y1="62.2143818847" x2="85.7349891324" y2="61.0964900686" stroke="red"  style="stroke-width:10"/><line x1="85.7349891324" y1="61.0964900686" x2="83.581439166" y2="65.7577611879" stroke="red"  style="stroke-width:10"/><line x1="83.581439166" y1="65.7577611879" x2="74.6016188448" y2="72.8896539781" stroke="red"  style="stroke-width:10"/><line x1="74.6016188448" y1="72.8896539781" x2="83.9185751551" y2="65.3995708545" stroke="red"  style="stroke-width:10"/><line x1="83.9185751551" y1="65.3995708545" x2="91.2415142622" y2="59.9825060822" stroke="red"  style="stroke-width:10"/><line x1="91.2415142622" y1="59.9825060822" x2="85.4897051038" y2="63.7303229003" stroke="red"  style="stroke-width:10"/><line x1="85.4897051038" y1="63.7303229003" x2="88.1154700783" y2="60.9405773317" stroke="red"  style="stroke-width:10"/><line x1="88.1154700783" y1="60.9405773317" x2="88.9639209985" y2="60.0391401439" stroke="red"  style="stroke-width:10"/><line x1="88.9639209985" y1="60.0391401439" x2="83.2579403715" y2="68.4901909796" stroke="red"  style="stroke-width:10"/><line x1="83.2579403715" y1="68.4901909796" x2="80.5134782374" y2="66.6274418154" stroke="red"  style="stroke-width:10"/><line x1="80.5134782374" y1="66.6274418154" x2="83.8720401112" y2="60.6982208983" stroke="red"  style="stroke-width:10"/><line x1="83.8720401112" y1="60.6982208983" x2="86.5309935189" y2="55.5344430402" stroke="red"  style="stroke-width:10"/><line x1="86.5309935189" y1="55.5344430402" x2="82.0986312538" y2="67.3331713416" stroke="red"  style="stroke-width:10"/><line x1="82.0986312538" y1="67.3331713416" x2="88.8862581188" y2="57.7584683627" stroke="red"  style="stroke-width:10"/><line x1="88.8862581188" y1="57.7584683627" x2="50.4801635872" y2="5.0" stroke="red"  style="stroke-width:10"/></svg>