<?xml version="1.0" encoding="utf-8"?>

<svg xmlns="http://www.w3.org/2000/svg" version="1.1" width="536.895097349" height="20.5226812597">
<line x1="268.447548675" y1="10.2613406298" x2="272.245154798" y2="9.77796688544" stroke="red"  style="stroke-width:10"/><line x1="272.245154798" y1="9.77796688544" x2="276.711967562" y2="8.77351742826" stroke="red"  style="stroke-width:10"/><line x1="276.711967562" y1="8.77351742826" x2="279.807456221" y2="10.0465622889" stroke="red"  style="stroke-width:10"/><line x1="279.807456221" y1="10.0465622889" x2="282.327950206" y2="9.66298546801" stroke="red"  style="stroke-width:10"/><line x1="282.327950206" y1="9.66298546801" x2="288.894290955" y2="10.008048435" stroke="red"  style="stroke-width:10"/><line x1="288.894290955" y1="10.008048435" x2="296.015207203" y2="10.459508316" stroke="red"  style="stroke-width:10"/><line x1="296.015207203" y1="10.459508316" x2="306.024256801" y2="11.0034093464" stroke="red"  style="stroke-width:10"/><line x1="306.024256801" y1="11.0034093464" x2="321.026324838" y2="10.7756692124" stroke="red"  style="stroke-width:10"/><line x1="321.026324838" y1="10.7756692124" x2="336.491960003" y2="12.7936597334" stroke="red"  style="stroke-width:10"/><line x1="336.491960003" y1="12.7936597334" x2="358.724169485" y2="12.8112083055" stroke="red"  style="stroke-width:10"/><line x1="358.724169485" y1="12.8112083055" x2="383.78660602" y2="14.3776959533" stroke="red"  style="stroke-width:10"/><line x1="383.78660602" y1="14.3776959533" x2="411.990602756" y2="14.6260405763" stroke="red"  style="stroke-width:10"/><line x1="411.990602756" y1="14.6260405763" x2="443.16749193" y2="15.5226812597" stroke="red"  style="stroke-width:10"/><line x1="443.16749193" y1="15.5226812597" x2="490.174204385" y2="7.60017085089" stroke="red"  style="stroke-width:10"/><line x1="490.174204385" y1="7.60017085089" x2="531.895097349" y2="7.65635627844" stroke="red"  style="stroke-width:10"/></svg>