<?xml version="1.0" encoding="utf-8"?>

<svg xmlns="http://www.w3.org/2000/svg" version="1.1" width="303.404230419" height="734.23698153">
<line x1="151.702115209" y1="367.118490765" x2="159.365167984" y2="336.206454402" stroke="red"  style="stroke-width:10"/><line x1="159.365167984" y1="336.206454402" x2="162.602269395" y2="309.482665798" stroke="red"  style="stroke-width:10"/><line x1="162.602269395" y1="309.482665798" x2="159.519210084" y2="246.218609696" stroke="red"  style="stroke-width:10"/><line x1="159.519210084" y1="246.218609696" x2="168.019590313" y2="197.672202836" stroke="red"  style="stroke-width:10"/><line x1="168.019590313" y1="197.672202836" x2="172.651798299" y2="147.216337318" stroke="red"  style="stroke-width:10"/><line x1="172.651798299" y1="147.216337318" x2="196.638953298" y2="112.080208581" stroke="red"  style="stroke-width:10"/><line x1="196.638953298" y1="112.080208581" x2="206.891155547" y2="119.35309378" stroke="red"  style="stroke-width:10"/><line x1="206.891155547" y1="119.35309378" x2="208.944108815" y2="177.285032396" stroke="red"  style="stroke-width:10"/><line x1="208.944108815" y1="177.285032396" x2="223.13340974" y2="243.590546644" stroke="red"  style="stroke-width:10"/><line x1="223.13340974" y1="243.590546644" x2="234.391551357" y2="304.278771288" stroke="red"  style="stroke-width:10"/><line x1="234.391551357" y1="304.278771288" x2="257.039945239" y2="357.792309018" stroke="red"  style="stroke-width:10"/><line x1="257.039945239" y1="357.792309018" x2="274.933886999" y2="363.868931028" stroke="red"  style="stroke-width:10"/><line x1="274.933886999" y1="363.868931028" x2="295.014182526" y2="324.724319391" stroke="red"  style="stroke-width:10"/><line x1="295.014182526" y1="324.724319391" x2="298.404230419" y2="273.852159409" stroke="red"  style="stroke-width:10"/><line x1="298.404230419" y1="273.852159409" x2="280.296577356" y2="11.8217226988" stroke="red"  style="stroke-width:10"/><line x1="280.296577356" y1="11.8217226988" x2="272.163632045" y2="5.0" stroke="red"  style="stroke-width:10"/><line x1="272.163632045" y1="5.0" x2="261.96818013" y2="29.2296313651" stroke="red"  style="stroke-width:10"/></svg>