<?xml version="1.0" encoding="utf-8"?>

<svg xmlns="http://www.w3.org/2000/svg" version="1.1" width="1294" height="1210">
<line x1="647" y1="605" x2="727" y2="618" stroke="red"  style="stroke-width:10"/><line x1="727" y1="618" x2="971" y2="609" stroke="red"  style="stroke-width:10"/><line x1="971" y1="609" x2="1191" y2="509" stroke="red"  style="stroke-width:10"/><line x1="1191" y1="509" x2="1289" y2="345" stroke="red"  style="stroke-width:10"/><line x1="1289" y1="345" x2="1214" y2="149" stroke="red"  style="stroke-width:10"/><line x1="1214" y1="149" x2="1095" y2="38" stroke="red"  style="stroke-width:10"/><line x1="1095" y1="38" x2="1003" y2="5" stroke="red"  style="stroke-width:10"/><line x1="1003" y1="5" x2="901" y2="28" stroke="red"  style="stroke-width:10"/><line x1="901" y1="28" x2="723" y2="126" stroke="red"  style="stroke-width:10"/><line x1="723" y1="126" x2="517" y2="236" stroke="red"  style="stroke-width:10"/><line x1="517" y1="236" x2="413" y2="344" stroke="red"  style="stroke-width:10"/><line x1="413" y1="344" x2="429" y2="437" stroke="red"  style="stroke-width:10"/><line x1="429" y1="437" x2="515" y2="525" stroke="red"  style="stroke-width:10"/><line x1="515" y1="525" x2="607" y2="579" stroke="red"  style="stroke-width:10"/><line x1="607" y1="579" x2="701" y2="627" stroke="red"  style="stroke-width:10"/><line x1="701" y1="627" x2="799" y2="647" stroke="red"  style="stroke-width:10"/><line x1="799" y1="647" x2="852" y2="647" stroke="red"  style="stroke-width:10"/><line x1="852" y1="647" x2="856" y2="641" stroke="red"  style="stroke-width:10"/></svg>