<?xml version="1.0" encoding="utf-8"?>

<svg xmlns="http://www.w3.org/2000/svg" version="1.1" width="806.392722414" height="713.301308063">
<line x1="403.196361207" y1="356.650654031" x2="404.453049407" y2="356.055231757" stroke="red"  style="stroke-width:10"/><line x1="404.453049407" y1="356.055231757" x2="405.033008825" y2="354.749645462" stroke="red"  style="stroke-width:10"/><line x1="405.033008825" y1="354.749645462" x2="402.520665071" y2="354.026693036" stroke="red"  style="stroke-width:10"/><line x1="402.520665071" y1="354.026693036" x2="391.434448986" y2="346.149775486" stroke="red"  style="stroke-width:10"/><line x1="391.434448986" y1="346.149775486" x2="373.45535161" y2="345.751977904" stroke="red"  style="stroke-width:10"/><line x1="373.45535161" y1="345.751977904" x2="347.497082328" y2="368.487235676" stroke="red"  style="stroke-width:10"/><line x1="347.497082328" y1="368.487235676" x2="318.733686789" y2="415.315354868" stroke="red"  style="stroke-width:10"/><line x1="318.733686789" y1="415.315354868" x2="302.315874273" y2="468.037429436" stroke="red"  style="stroke-width:10"/><line x1="302.315874273" y1="468.037429436" x2="299.748233029" y2="522.772180227" stroke="red"  style="stroke-width:10"/><line x1="299.748233029" y1="522.772180227" x2="316.576665365" y2="563.737344146" stroke="red"  style="stroke-width:10"/><line x1="316.576665365" y1="563.737344146" x2="352.179266773" y2="583.381382236" stroke="red"  style="stroke-width:10"/><line x1="352.179266773" y1="583.381382236" x2="400.258783534" y2="582.224947059" stroke="red"  style="stroke-width:10"/><line x1="400.258783534" y1="582.224947059" x2="445.173570206" y2="555.064945435" stroke="red"  style="stroke-width:10"/><line x1="445.173570206" y1="555.064945435" x2="486.777935983" y2="503.84791547" stroke="red"  style="stroke-width:10"/><line x1="486.777935983" y1="503.84791547" x2="532.140930746" y2="398.659878977" stroke="red"  style="stroke-width:10"/><line x1="532.140930746" y1="398.659878977" x2="529.498339648" y2="318.821750799" stroke="red"  style="stroke-width:10"/><line x1="529.498339648" y1="318.821750799" x2="511.155704973" y2="262.007808958" stroke="red"  style="stroke-width:10"/><line x1="511.155704973" y1="262.007808958" x2="476.296075568" y2="227.467065911" stroke="red"  style="stroke-width:10"/><line x1="476.296075568" y1="227.467065911" x2="417.766729677" y2="228.786974925" stroke="red"  style="stroke-width:10"/><line x1="417.766729677" y1="228.786974925" x2="352.153014216" y2="277.168168835" stroke="red"  style="stroke-width:10"/><line x1="352.153014216" y1="277.168168835" x2="302.038665892" y2="348.547469244" stroke="red"  style="stroke-width:10"/><line x1="302.038665892" y1="348.547469244" x2="273.31799228" y2="443.651350098" stroke="red"  style="stroke-width:10"/><line x1="273.31799228" y1="443.651350098" x2="266.000239249" y2="532.595300306" stroke="red"  style="stroke-width:10"/><line x1="266.000239249" y1="532.595300306" x2="290.793492101" y2="587.651371615" stroke="red"  style="stroke-width:10"/><line x1="290.793492101" y1="587.651371615" x2="341.385790418" y2="607.084160645" stroke="red"  style="stroke-width:10"/><line x1="341.385790418" y1="607.084160645" x2="404.165928791" y2="585.047002973" stroke="red"  style="stroke-width:10"/><line x1="404.165928791" y1="585.047002973" x2="467.677113771" y2="537.441781674" stroke="red"  style="stroke-width:10"/><line x1="467.677113771" y1="537.441781674" x2="521.884459152" y2="463.503065462" stroke="red"  style="stroke-width:10"/><line x1="521.884459152" y1="463.503065462" x2="574.117529519" y2="369.162669134" stroke="red"  style="stroke-width:10"/><line x1="574.117529519" y1="369.162669134" x2="618.302995524" y2="279.828538764" stroke="red"  style="stroke-width:10"/><line x1="618.302995524" y1="279.828538764" x2="658.657083058" y2="198.23904539" stroke="red"  style="stroke-width:10"/><line x1="658.657083058" y1="198.23904539" x2="696.083331163" y2="130.847080196" stroke="red"  style="stroke-width:10"/><line x1="696.083331163" y1="130.847080196" x2="735.234760719" y2="84.0288886993" stroke="red"  style="stroke-width:10"/><line x1="735.234760719" y1="84.0288886993" x2="773.815287707" y2="64.0390351972" stroke="red"  style="stroke-width:10"/><line x1="773.815287707" y1="64.0390351972" x2="801.392722414" y2="73.8004853842" stroke="red"  style="stroke-width:10"/><line x1="801.392722414" y1="73.8004853842" x2="795.684675292" y2="116.247890786" stroke="red"  style="stroke-width:10"/><line x1="795.684675292" y1="116.247890786" x2="768.878251746" y2="180.233603635" stroke="red"  style="stroke-width:10"/><line x1="768.878251746" y1="180.233603635" x2="729.549218482" y2="256.210001096" stroke="red"  style="stroke-width:10"/><line x1="729.549218482" y1="256.210001096" x2="683.079344317" y2="335.890306841" stroke="red"  style="stroke-width:10"/><line x1="683.079344317" y1="335.890306841" x2="635.413921322" y2="414.101290117" stroke="red"  style="stroke-width:10"/><line x1="635.413921322" y1="414.101290117" x2="569.409723903" y2="526.788228776" stroke="red"  style="stroke-width:10"/><line x1="569.409723903" y1="526.788228776" x2="580.679417867" y2="613.479568041" stroke="red"  style="stroke-width:10"/><line x1="580.679417867" y1="613.479568041" x2="598.866490991" y2="656.738868761" stroke="red"  style="stroke-width:10"/><line x1="598.866490991" y1="656.738868761" x2="647.24780464" y2="674.93916373" stroke="red"  style="stroke-width:10"/><line x1="647.24780464" y1="674.93916373" x2="703.433480565" y2="652.923582777" stroke="red"  style="stroke-width:10"/><line x1="703.433480565" y1="652.923582777" x2="750.406590472" y2="582.236604832" stroke="red"  style="stroke-width:10"/><line x1="750.406590472" y1="582.236604832" x2="771.623761461" y2="502.747776213" stroke="red"  style="stroke-width:10"/><line x1="771.623761461" y1="502.747776213" x2="761.141065854" y2="420.83180714" stroke="red"  style="stroke-width:10"/><line x1="761.141065854" y1="420.83180714" x2="728.36541068" y2="386.313974928" stroke="red"  style="stroke-width:10"/><line x1="728.36541068" y1="386.313974928" x2="672.421276371" y2="372.414268813" stroke="red"  style="stroke-width:10"/><line x1="672.421276371" y1="372.414268813" x2="614.247773323" y2="398.60945842" stroke="red"  style="stroke-width:10"/><line x1="614.247773323" y1="398.60945842" x2="559.172657974" y2="456.195773633" stroke="red"  style="stroke-width:10"/><line x1="559.172657974" y1="456.195773633" x2="499.977780729" y2="548.554916705" stroke="red"  style="stroke-width:10"/><line x1="499.977780729" y1="548.554916705" x2="494.497740079" y2="615.947720169" stroke="red"  style="stroke-width:10"/><line x1="494.497740079" y1="615.947720169" x2="534.119802096" y2="672.829855947" stroke="red"  style="stroke-width:10"/><line x1="534.119802096" y1="672.829855947" x2="585.029834511" y2="698.623123082" stroke="red"  style="stroke-width:10"/><line x1="585.029834511" y1="698.623123082" x2="612.013623129" y2="695.629980541" stroke="red"  style="stroke-width:10"/><line x1="612.013623129" y1="695.629980541" x2="602.553757834" y2="699.150315904" stroke="red"  style="stroke-width:10"/><line x1="602.553757834" y1="699.150315904" x2="535.762522258" y2="708.301308063" stroke="red"  style="stroke-width:10"/></svg>