<?xml version="1.0" encoding="utf-8"?>

<svg xmlns="http://www.w3.org/2000/svg" version="1.1" width="1810.97920888" height="261.759822303">
<line x1="905.489604438" y1="130.879911152" x2="988.107319671" y2="68.1449029287" stroke="red"  style="stroke-width:10"/><line x1="988.107319671" y1="68.1449029287" x2="954.281842085" y2="52.1548984585" stroke="red"  style="stroke-width:10"/><line x1="954.281842085" y1="52.1548984585" x2="1019.51742678" y2="38.047492138" stroke="red"  style="stroke-width:10"/><line x1="1019.51742678" y1="38.047492138" x2="1019.51742678" y2="38.047492138" stroke="red"  style="stroke-width:10"/><line x1="1019.51742678" y1="38.047492138" x2="1068.6827305" y2="68.5828814011" stroke="red"  style="stroke-width:10"/><line x1="1068.6827305" y1="68.5828814011" x2="1135.07200989" y2="34.4245094924" stroke="red"  style="stroke-width:10"/><line x1="1135.07200989" y1="34.4245094924" x2="1133.38159569" y2="35.2942552912" stroke="red"  style="stroke-width:10"/><line x1="1133.38159569" y1="35.2942552912" x2="1195.43775337" y2="5.0" stroke="red"  style="stroke-width:10"/><line x1="1195.43775337" y1="5.0" x2="1249.86509679" y2="45.1593822729" stroke="red"  style="stroke-width:10"/><line x1="1249.86509679" y1="45.1593822729" x2="1310.78045374" y2="90.1059652299" stroke="red"  style="stroke-width:10"/><line x1="1310.78045374" y1="90.1059652299" x2="1310.78045374" y2="90.1059652299" stroke="red"  style="stroke-width:10"/><line x1="1310.78045374" y1="90.1059652299" x2="1415.70626718" y2="110.197499553" stroke="red"  style="stroke-width:10"/><line x1="1415.70626718" y1="110.197499553" x2="1416.69616589" y2="111.01646045" stroke="red"  style="stroke-width:10"/><line x1="1416.69616589" y1="111.01646045" x2="1417.65352678" y2="110.192454936" stroke="red"  style="stroke-width:10"/><line x1="1417.65352678" y1="110.192454936" x2="1470.51993018" y2="66.2220522906" stroke="red"  style="stroke-width:10"/><line x1="1470.51993018" y1="66.2220522906" x2="1471.35211524" y2="67.0373883284" stroke="red"  style="stroke-width:10"/><line x1="1471.35211524" y1="67.0373883284" x2="1472.18409529" y2="67.8525235082" stroke="red"  style="stroke-width:10"/><line x1="1472.18409529" y1="67.8525235082" x2="1473.01587416" y2="68.6674615704" stroke="red"  style="stroke-width:10"/><line x1="1473.01587416" y1="68.6674615704" x2="1473.84745564" y2="69.4822062519" stroke="red"  style="stroke-width:10"/><line x1="1473.84745564" y1="69.4822062519" x2="1473.84745564" y2="69.4822062519" stroke="red"  style="stroke-width:10"/><line x1="1473.84745564" y1="69.4822062519" x2="1474.67884356" y2="70.2967612862" stroke="red"  style="stroke-width:10"/><line x1="1474.67884356" y1="70.2967612862" x2="1475.51004173" y2="71.111130403" stroke="red"  style="stroke-width:10"/><line x1="1475.51004173" y1="71.111130403" x2="1548.3536196" y2="142.479864096" stroke="red"  style="stroke-width:10"/><line x1="1548.3536196" y1="142.479864096" x2="1548.3536196" y2="142.479864096" stroke="red"  style="stroke-width:10"/><line x1="1548.3536196" y1="142.479864096" x2="1729.40223019" y2="208.841549687" stroke="red"  style="stroke-width:10"/><line x1="1729.40223019" y1="208.841549687" x2="1729.40223019" y2="208.841549687" stroke="red"  style="stroke-width:10"/><line x1="1729.40223019" y1="208.841549687" x2="1805.97920888" y2="57.0186337166" stroke="red"  style="stroke-width:10"/></svg>