<?xml version="1.0" encoding="utf-8"?>

<svg xmlns="http://www.w3.org/2000/svg" version="1.1" width="1536" height="538">
<line x1="768" y1="269" x2="873" y2="261" stroke="red"  style="stroke-width:10"/><line x1="873" y1="261" x2="1018" y2="240" stroke="red"  style="stroke-width:10"/><line x1="1018" y1="240" x2="1238" y2="205" stroke="red"  style="stroke-width:10"/><line x1="1238" y1="205" x2="1369" y2="199" stroke="red"  style="stroke-width:10"/><line x1="1369" y1="199" x2="1508" y2="199" stroke="red"  style="stroke-width:10"/><line x1="1508" y1="199" x2="1519" y2="199" stroke="red"  style="stroke-width:10"/><line x1="1519" y1="199" x2="1526" y2="199" stroke="red"  style="stroke-width:10"/><line x1="1526" y1="199" x2="1531" y2="204" stroke="red"  style="stroke-width:10"/><line x1="1531" y1="204" x2="1520" y2="241" stroke="red"  style="stroke-width:10"/><line x1="1520" y1="241" x2="1411" y2="282" stroke="red"  style="stroke-width:10"/><line x1="1411" y1="282" x2="1186" y2="343" stroke="red"  style="stroke-width:10"/><line x1="1186" y1="343" x2="1041" y2="381" stroke="red"  style="stroke-width:10"/><line x1="1041" y1="381" x2="843" y2="420" stroke="red"  style="stroke-width:10"/><line x1="843" y1="420" x2="719" y2="436" stroke="red"  style="stroke-width:10"/><line x1="719" y1="436" x2="610" y2="443" stroke="red"  style="stroke-width:10"/><line x1="610" y1="443" x2="566" y2="445" stroke="red"  style="stroke-width:10"/><line x1="566" y1="445" x2="543" y2="445" stroke="red"  style="stroke-width:10"/><line x1="543" y1="445" x2="530" y2="445" stroke="red"  style="stroke-width:10"/><line x1="530" y1="445" x2="523" y2="445" stroke="red"  style="stroke-width:10"/><line x1="523" y1="445" x2="519" y2="445" stroke="red"  style="stroke-width:10"/><line x1="519" y1="445" x2="515" y2="444" stroke="red"  style="stroke-width:10"/><line x1="515" y1="444" x2="515" y2="438" stroke="red"  style="stroke-width:10"/><line x1="515" y1="438" x2="515" y2="434" stroke="red"  style="stroke-width:10"/><line x1="515" y1="434" x2="550" y2="421" stroke="red"  style="stroke-width:10"/><line x1="550" y1="421" x2="606" y2="411" stroke="red"  style="stroke-width:10"/><line x1="606" y1="411" x2="689" y2="409" stroke="red"  style="stroke-width:10"/><line x1="689" y1="409" x2="833" y2="415" stroke="red"  style="stroke-width:10"/><line x1="833" y1="415" x2="900" y2="440" stroke="red"  style="stroke-width:10"/><line x1="900" y1="440" x2="911" y2="446" stroke="red"  style="stroke-width:10"/><line x1="911" y1="446" x2="917" y2="454" stroke="red"  style="stroke-width:10"/><line x1="917" y1="454" x2="917" y2="462" stroke="red"  style="stroke-width:10"/><line x1="917" y1="462" x2="884" y2="496" stroke="red"  style="stroke-width:10"/><line x1="884" y1="496" x2="823" y2="518" stroke="red"  style="stroke-width:10"/><line x1="823" y1="518" x2="751" y2="531" stroke="red"  style="stroke-width:10"/><line x1="751" y1="531" x2="624" y2="533" stroke="red"  style="stroke-width:10"/><line x1="624" y1="533" x2="545" y2="533" stroke="red"  style="stroke-width:10"/><line x1="545" y1="533" x2="517" y2="530" stroke="red"  style="stroke-width:10"/><line x1="517" y1="530" x2="511" y2="523" stroke="red"  style="stroke-width:10"/><line x1="511" y1="523" x2="507" y2="513" stroke="red"  style="stroke-width:10"/><line x1="507" y1="513" x2="506" y2="456" stroke="red"  style="stroke-width:10"/><line x1="506" y1="456" x2="524" y2="410" stroke="red"  style="stroke-width:10"/><line x1="524" y1="410" x2="551" y2="378" stroke="red"  style="stroke-width:10"/><line x1="551" y1="378" x2="636" y2="336" stroke="red"  style="stroke-width:10"/><line x1="636" y1="336" x2="707" y2="319" stroke="red"  style="stroke-width:10"/><line x1="707" y1="319" x2="747" y2="314" stroke="red"  style="stroke-width:10"/><line x1="747" y1="314" x2="810" y2="314" stroke="red"  style="stroke-width:10"/><line x1="810" y1="314" x2="841" y2="314" stroke="red"  style="stroke-width:10"/><line x1="841" y1="314" x2="909" y2="400" stroke="red"  style="stroke-width:10"/><line x1="909" y1="400" x2="931" y2="452" stroke="red"  style="stroke-width:10"/><line x1="931" y1="452" x2="932" y2="475" stroke="red"  style="stroke-width:10"/><line x1="932" y1="475" x2="926" y2="495" stroke="red"  style="stroke-width:10"/><line x1="926" y1="495" x2="898" y2="510" stroke="red"  style="stroke-width:10"/><line x1="898" y1="510" x2="844" y2="512" stroke="red"  style="stroke-width:10"/><line x1="844" y1="512" x2="760" y2="511" stroke="red"  style="stroke-width:10"/><line x1="760" y1="511" x2="732" y2="491" stroke="red"  style="stroke-width:10"/><line x1="732" y1="491" x2="712" y2="474" stroke="red"  style="stroke-width:10"/><line x1="712" y1="474" x2="706" y2="462" stroke="red"  style="stroke-width:10"/><line x1="706" y1="462" x2="704" y2="425" stroke="red"  style="stroke-width:10"/><line x1="704" y1="425" x2="704" y2="362" stroke="red"  style="stroke-width:10"/><line x1="704" y1="362" x2="725" y2="323" stroke="red"  style="stroke-width:10"/><line x1="725" y1="323" x2="745" y2="300" stroke="red"  style="stroke-width:10"/><line x1="745" y1="300" x2="779" y2="262" stroke="red"  style="stroke-width:10"/><line x1="779" y1="262" x2="807" y2="245" stroke="red"  style="stroke-width:10"/><line x1="807" y1="245" x2="824" y2="231" stroke="red"  style="stroke-width:10"/><line x1="824" y1="231" x2="829" y2="226" stroke="red"  style="stroke-width:10"/><line x1="829" y1="226" x2="833" y2="221" stroke="red"  style="stroke-width:10"/><line x1="833" y1="221" x2="839" y2="209" stroke="red"  style="stroke-width:10"/><line x1="839" y1="209" x2="840" y2="203" stroke="red"  style="stroke-width:10"/><line x1="840" y1="203" x2="842" y2="196" stroke="red"  style="stroke-width:10"/><line x1="842" y1="196" x2="845" y2="177" stroke="red"  style="stroke-width:10"/><line x1="845" y1="177" x2="848" y2="168" stroke="red"  style="stroke-width:10"/><line x1="848" y1="168" x2="855" y2="152" stroke="red"  style="stroke-width:10"/><line x1="855" y1="152" x2="862" y2="135" stroke="red"  style="stroke-width:10"/><line x1="862" y1="135" x2="866" y2="127" stroke="red"  style="stroke-width:10"/><line x1="866" y1="127" x2="870" y2="121" stroke="red"  style="stroke-width:10"/><line x1="870" y1="121" x2="872" y2="119" stroke="red"  style="stroke-width:10"/><line x1="872" y1="119" x2="873" y2="119" stroke="red"  style="stroke-width:10"/></svg>