<?xml version="1.0" encoding="utf-8"?>

<svg xmlns="http://www.w3.org/2000/svg" version="1.1" width="1243.37107388" height="365.877172093">
<line x1="621.685536939" y1="182.938586047" x2="583.920472878" y2="153.246528266" stroke="red"  style="stroke-width:10"/><line x1="583.920472878" y1="153.246528266" x2="585.189275195" y2="136.187451965" stroke="red"  style="stroke-width:10"/><line x1="585.189275195" y1="136.187451965" x2="596.806888718" y2="116.04627511" stroke="red"  style="stroke-width:10"/><line x1="596.806888718" y1="116.04627511" x2="598.999710772" y2="108.306146497" stroke="red"  style="stroke-width:10"/><line x1="598.999710772" y1="108.306146497" x2="605.571150181" y2="112.309748806" stroke="red"  style="stroke-width:10"/><line x1="605.571150181" y1="112.309748806" x2="614.262019027" y2="122.079214708" stroke="red"  style="stroke-width:10"/><line x1="614.262019027" y1="122.079214708" x2="610.738034044" y2="137.742051005" stroke="red"  style="stroke-width:10"/><line x1="610.738034044" y1="137.742051005" x2="608.732100774" y2="156.31877488" stroke="red"  style="stroke-width:10"/><line x1="608.732100774" y1="156.31877488" x2="628.958350433" y2="195.356600249" stroke="red"  style="stroke-width:10"/><line x1="628.958350433" y1="195.356600249" x2="593.345562979" y2="207.971004473" stroke="red"  style="stroke-width:10"/><line x1="593.345562979" y1="207.971004473" x2="602.307333456" y2="231.309350607" stroke="red"  style="stroke-width:10"/><line x1="602.307333456" y1="231.309350607" x2="599.881914455" y2="258.772156015" stroke="red"  style="stroke-width:10"/><line x1="599.881914455" y1="258.772156015" x2="604.906035553" y2="283.181711095" stroke="red"  style="stroke-width:10"/><line x1="604.906035553" y1="283.181711095" x2="598.128825511" y2="303.915743475" stroke="red"  style="stroke-width:10"/><line x1="598.128825511" y1="303.915743475" x2="627.853950755" y2="330.101542459" stroke="red"  style="stroke-width:10"/><line x1="627.853950755" y1="330.101542459" x2="623.343706474" y2="349.036423425" stroke="red"  style="stroke-width:10"/><line x1="623.343706474" y1="349.036423425" x2="611.97622981" y2="352.0706098" stroke="red"  style="stroke-width:10"/><line x1="611.97622981" y1="352.0706098" x2="648.341342942" y2="360.877172093" stroke="red"  style="stroke-width:10"/><line x1="648.341342942" y1="360.877172093" x2="708.473576846" y2="353.344074356" stroke="red"  style="stroke-width:10"/><line x1="708.473576846" y1="353.344074356" x2="772.86383341" y2="352.583458071" stroke="red"  style="stroke-width:10"/><line x1="772.86383341" y1="352.583458071" x2="849.508598986" y2="353.167126757" stroke="red"  style="stroke-width:10"/><line x1="849.508598986" y1="353.167126757" x2="937.273680001" y2="346.902767411" stroke="red"  style="stroke-width:10"/><line x1="937.273680001" y1="346.902767411" x2="1019.07794483" y2="344.253478228" stroke="red"  style="stroke-width:10"/><line x1="1019.07794483" y1="344.253478228" x2="1097.88703902" y2="346.798530568" stroke="red"  style="stroke-width:10"/><line x1="1097.88703902" y1="346.798530568" x2="1155.28072352" y2="343.928334436" stroke="red"  style="stroke-width:10"/><line x1="1155.28072352" y1="343.928334436" x2="1196.32036693" y2="347.175579076" stroke="red"  style="stroke-width:10"/><line x1="1196.32036693" y1="347.175579076" x2="1208.08890576" y2="338.872303587" stroke="red"  style="stroke-width:10"/><line x1="1208.08890576" y1="338.872303587" x2="1221.94759053" y2="336.734569805" stroke="red"  style="stroke-width:10"/><line x1="1221.94759053" y1="336.734569805" x2="1232.19985689" y2="326.118728335" stroke="red"  style="stroke-width:10"/><line x1="1232.19985689" y1="326.118728335" x2="1234.10546918" y2="301.347766282" stroke="red"  style="stroke-width:10"/><line x1="1234.10546918" y1="301.347766282" x2="1238.37107388" y2="274.713477339" stroke="red"  style="stroke-width:10"/><line x1="1238.37107388" y1="274.713477339" x2="1219.48555592" y2="216.199571673" stroke="red"  style="stroke-width:10"/><line x1="1219.48555592" y1="216.199571673" x2="1216.41369446" y2="169.328825063" stroke="red"  style="stroke-width:10"/><line x1="1216.41369446" y1="169.328825063" x2="1220.14270756" y2="129.035949181" stroke="red"  style="stroke-width:10"/><line x1="1220.14270756" y1="129.035949181" x2="1221.1170817" y2="100.931976784" stroke="red"  style="stroke-width:10"/><line x1="1221.1170817" y1="100.931976784" x2="1215.18798034" y2="85.9653270964" stroke="red"  style="stroke-width:10"/><line x1="1215.18798034" y1="85.9653270964" x2="1200.36580988" y2="82.8508411041" stroke="red"  style="stroke-width:10"/><line x1="1200.36580988" y1="82.8508411041" x2="1178.42812828" y2="96.7015082049" stroke="red"  style="stroke-width:10"/><line x1="1178.42812828" y1="96.7015082049" x2="1133.36809244" y2="101.405812007" stroke="red"  style="stroke-width:10"/><line x1="1133.36809244" y1="101.405812007" x2="1073.35886563" y2="105.376043133" stroke="red"  style="stroke-width:10"/><line x1="1073.35886563" y1="105.376043133" x2="991.547028286" y2="97.9665836108" stroke="red"  style="stroke-width:10"/><line x1="991.547028286" y1="97.9665836108" x2="916.131418276" y2="107.474891404" stroke="red"  style="stroke-width:10"/><line x1="916.131418276" y1="107.474891404" x2="840.306098007" y2="115.768264861" stroke="red"  style="stroke-width:10"/><line x1="840.306098007" y1="115.768264861" x2="790.903288835" y2="141.038834352" stroke="red"  style="stroke-width:10"/><line x1="790.903288835" y1="141.038834352" x2="731.121783451" y2="156.302309633" stroke="red"  style="stroke-width:10"/><line x1="731.121783451" y1="156.302309633" x2="666.939289575" y2="149.697847409" stroke="red"  style="stroke-width:10"/><line x1="666.939289575" y1="149.697847409" x2="650.769792874" y2="148.480474479" stroke="red"  style="stroke-width:10"/></svg>