<?xml version="1.0" encoding="utf-8"?>

<svg xmlns="http://www.w3.org/2000/svg" version="1.1" width="2469.76874471" height="422.935424416">
<line x1="1234.88437236" y1="211.467712208" x2="1242.4209619" y2="216.683735168" stroke="red"  style="stroke-width:10"/><line x1="1242.4209619" y1="216.683735168" x2="1331.89123801" y2="202.601483907" stroke="red"  style="stroke-width:10"/><line x1="1331.89123801" y1="202.601483907" x2="1335.71937582" y2="198.743251834" stroke="red"  style="stroke-width:10"/><line x1="1335.71937582" y1="198.743251834" x2="1405.34920953" y2="173.625623455" stroke="red"  style="stroke-width:10"/><line x1="1405.34920953" y1="173.625623455" x2="1436.58963717" y2="162.356237763" stroke="red"  style="stroke-width:10"/><line x1="1436.58963717" y1="162.356237763" x2="1527.81678266" y2="190.435541111" stroke="red"  style="stroke-width:10"/><line x1="1527.81678266" y1="190.435541111" x2="1560.94246774" y2="176.888738048" stroke="red"  style="stroke-width:10"/><line x1="1560.94246774" y1="176.888738048" x2="1599.361691" y2="161.177133895" stroke="red"  style="stroke-width:10"/><line x1="1599.361691" y1="161.177133895" x2="1634.79217636" y2="191.907891244" stroke="red"  style="stroke-width:10"/><line x1="1634.79217636" y1="191.907891244" x2="1735.13783539" y2="199.349782139" stroke="red"  style="stroke-width:10"/><line x1="1735.13783539" y1="199.349782139" x2="1794.84844482" y2="169.640139711" stroke="red"  style="stroke-width:10"/><line x1="1794.84844482" y1="169.640139711" x2="1898.5420466" y2="255.363985156" stroke="red"  style="stroke-width:10"/><line x1="1898.5420466" y1="255.363985156" x2="1989.44960223" y2="290.34154035" stroke="red"  style="stroke-width:10"/><line x1="1989.44960223" y1="290.34154035" x2="1989.44960223" y2="290.34154035" stroke="red"  style="stroke-width:10"/><line x1="1989.44960223" y1="290.34154035" x2="2114.0241905" y2="318.36443243" stroke="red"  style="stroke-width:10"/><line x1="2114.0241905" y1="318.36443243" x2="2248.18604576" y2="384.680559625" stroke="red"  style="stroke-width:10"/><line x1="2248.18604576" y1="384.680559625" x2="2320.32591106" y2="290.400155046" stroke="red"  style="stroke-width:10"/><line x1="2320.32591106" y1="290.400155046" x2="2464.76874471" y2="417.935424416" stroke="red"  style="stroke-width:10"/></svg>